<svg version="1.1" viewBox="0.0 0.0 1280.0 720.0" fill="none" stroke="none" stroke-linecap="square" stroke-miterlimit="10" xmlns:xlink="http://www.w3.org/1999/xlink" xmlns="http://www.w3.org/2000/svg"><clipPath id="p14.0"><path d="m0 0l1280.0 0l0 720.0l-1280.0 0l0 -720.0z" clip-rule="nonzero"/></clipPath><g clip-path="url(#p14.0)"><path fill="#ffffff" d="m0 0l1280.0 0l0 720.0l-1280.0 0z" fill-rule="evenodd"/><path fill="#000000" fill-opacity="0.0" d="m88.0 38.333332l1104.0 0l0 139.16672l-1104.0 0z" fill-rule="evenodd"/><path fill="#000000" d="m103.875 91.89345l9.453125 -4.609375l0.9375 0l0 32.796875q0 3.265625 0.265625 4.078125q0.28125 0.796875 1.140625 1.234375q0.859375 0.421875 3.5 0.46875l0 1.0625l-14.609375 0l0 -1.0625q2.75 -0.046875 3.546875 -0.46875q0.8125 -0.421875 1.125 -1.109375q0.3125 -0.703125 0.3125 -4.203125l0 -20.96875q0 -4.234375 -0.28125 -5.4375q-0.203125 -0.921875 -0.734375 -1.34375q-0.53125 -0.4375 -1.28125 -0.4375q-1.0625 0 -2.953125 0.890625l-0.421875 -0.890625zm29.78125 29.46875q1.34375 0 2.265625 0.9375q0.921875 0.9375 0.921875 2.25q0 1.3125 -0.9375 2.25q-0.921875 0.921875 -2.25 0.921875q-1.3125 0 -2.25 -0.921875q-0.921875 -0.9375 -0.921875 -2.25q0 -1.34375 0.921875 -2.265625q0.9375 -0.921875 2.25 -0.921875z" fill-rule="nonzero"/><path fill="#000000" d="m153.13281 104.70595l0 -22.6875l2.75 1.375l8.703125 -3.671875l2.53125 2.53125q1.140625 1.140625 -3.21875 0.671875l-7.78125 1.609375l0 5.265625l2.96875 0l2.296875 -2.28125l2.984375 2.0625q1.375 1.140625 0 1.59375l-8.25 0l0 5.734375l3.4375 0l2.28125 -2.296875l2.984375 2.0625q1.375 1.15625 0 1.609375l-8.703125 0l0 6.421875l28.640625 0l0 -6.421875l-7.109375 0l0 -1.375l7.109375 0l0 -5.734375l-7.328125 0l0 -1.375l7.328125 0l0 -5.953125l-7.328125 0l0 -1.375l6.875 0l1.359375 -1.59375l3.4375 2.28125q1.609375 1.140625 -1.375 1.609375l0 19.9375l3.4375 0l1.609375 -1.84375l3.4375 3.4375q2.0625 1.84375 -0.921875 1.609375q-1.375 0 -2.0625 0.921875l-3.203125 3.203125q-1.828125 1.375 -0.921875 -0.6875l2.53125 -5.265625l-42.390625 0q0.234375 1.59375 -0.6875 4.125q-0.921875 2.28125 -2.515625 2.734375q-1.84375 0 -1.84375 -1.359375q0 -1.15625 1.609375 -2.984375q1.609375 -2.296875 2.296875 -5.734375q0.453125 -1.375 0.90625 0.234375q0.234375 0.921875 0.234375 1.609375l3.890625 0zm18.796875 12.828125l0 2.28125l18.09375 0l2.984375 -2.96875l3.65625 2.75q1.375 1.140625 0 1.59375l-24.734375 0l0 7.109375q0 2.296875 -1.15625 3.4375q-1.140625 1.140625 -2.28125 1.375q-1.375 0.234375 -1.375 -0.921875q-0.234375 -0.90625 -1.15625 -1.375l-4.125 -0.90625q-0.90625 -0.46875 0 -0.921875l5.5 0q1.609375 0 1.609375 -1.609375l0 -6.1875l-23.59375 0l0 -1.375l23.59375 0l0 -4.578125l3.203125 1.140625l5.96875 -4.578125l-22.0 0l0 -1.375l21.765625 0l2.0625 -1.59375l2.984375 2.28125q2.96875 2.296875 -0.234375 1.828125q-1.375 -0.21875 -2.75 0.46875l-8.015625 4.125zm2.75 -22.234375q-1.15625 1.375 -2.0625 2.53125q2.0625 1.59375 2.75 2.96875q0.6875 1.375 -0.234375 2.0625q-1.140625 0.6875 -1.828125 -0.6875q-1.15625 -1.828125 -2.0625 -2.75q-2.296875 2.296875 -5.734375 3.90625q-1.140625 0.21875 -0.453125 -0.46875q2.96875 -2.0625 5.03125 -4.8125q-1.375 -1.140625 -3.65625 -2.28125q-0.921875 -0.6875 0 -0.6875q2.28125 0.453125 4.578125 1.59375q1.609375 -2.515625 2.515625 -4.125l2.53125 1.609375q1.59375 1.140625 -1.375 1.140625zm0.21875 -13.046875q1.84375 1.140625 -1.140625 1.140625q-0.921875 1.59375 -2.0625 3.203125q2.515625 1.609375 2.75 3.203125q0 2.0625 -1.609375 1.15625q-1.375 -2.0625 -2.28125 -2.75q-2.0625 2.515625 -5.046875 4.34375q-0.921875 0.234375 -0.234375 -0.453125q2.296875 -2.296875 3.90625 -5.265625q-1.375 -0.921875 -3.90625 -1.84375q-0.6875 -0.453125 0.234375 -0.453125q2.296875 0.234375 4.359375 1.140625q2.0625 -3.421875 2.515625 -4.796875l2.515625 1.375zm47.890625 13.046875q-7.5625 4.359375 -15.125 8.25q-0.21875 2.75 -2.0625 0.921875l-2.96875 -2.984375q12.59375 -3.4375 20.15625 -7.328125l0 -11.0l-19.46875 0l0 -1.375l18.78125 0l1.375 -1.828125l3.203125 2.296875q1.375 1.140625 -0.90625 1.59375l0 15.8125q0 2.296875 -1.609375 3.890625q-0.921875 0.921875 -2.515625 0.921875q-0.6875 0 -0.6875 -1.140625q0 -1.375 -1.375 -1.609375l-2.984375 -0.453125q-0.921875 -0.46875 0 -0.921875l4.578125 0q1.609375 0 1.609375 -1.609375l0 -3.4375zm-8.9375 -6.40625q1.828125 1.59375 1.828125 3.203125q0 1.828125 -1.140625 1.828125q-1.140625 0 -1.828125 -1.59375q-1.140625 -2.75 -5.046875 -5.28125q-1.140625 -0.90625 0.46875 -0.90625q3.890625 1.140625 5.71875 2.75zm38.03125 -6.640625q1.375 1.140625 -0.90625 1.59375l0 16.5q0 2.296875 -1.609375 3.890625q-0.921875 0.921875 -2.515625 0.921875q-0.6875 0 -0.6875 -1.140625q0 -1.15625 -1.15625 -1.375l-3.203125 -0.6875q-0.90625 -0.46875 0 -0.921875l4.578125 0q1.609375 0 1.609375 -1.609375l0 -5.71875q-6.640625 3.890625 -13.515625 7.328125q-0.453125 2.296875 -1.609375 1.140625l-3.203125 -3.203125q8.9375 -2.296875 18.328125 -6.421875l0 -9.390625l-18.78125 0l0 -1.375l18.09375 0l1.375 -1.828125l3.203125 2.296875zm-20.15625 3.421875q4.359375 0.921875 6.421875 2.984375q1.59375 1.609375 1.59375 2.984375q0 1.59375 -1.59375 1.59375q-1.375 0 -1.84375 -1.828125q-0.453125 -2.0625 -4.8125 -5.046875q-0.90625 -0.6875 0.234375 -0.6875zm-15.125 34.140625l0 7.5625l26.359375 0l0 -7.5625l-26.359375 0zm0 -8.921875l0 7.546875l26.359375 0l0 -7.546875l-26.359375 0zm30.25 -0.921875q1.375 1.140625 -0.921875 1.609375l0 19.703125q-2.96875 2.75 -2.96875 0.21875l0 -2.75l-26.359375 0l0 2.984375q-2.96875 2.75 -2.96875 0.234375l0 -24.296875l3.421875 1.84375l8.484375 0l1.828125 -7.5625l4.125 2.0625q1.84375 0.6875 -1.828125 1.59375l-2.296875 3.90625l14.90625 0l1.375 -1.84375l3.203125 2.296875zm52.921875 -17.1875q-2.75 15.578125 -8.9375 23.140625q8.9375 6.875 22.6875 10.078125q-3.671875 1.375 -4.359375 3.671875q-10.765625 -3.4375 -20.15625 -11.6875q-8.9375 9.171875 -26.578125 12.375q-2.0625 0 -0.453125 -0.921875q16.265625 -4.125 24.96875 -13.515625q-7.109375 -9.625 -9.390625 -23.140625l-14.203125 0l0 -1.375l22.671875 0l0 -10.078125l4.125 0.6875q2.53125 0.90625 -1.140625 1.828125l0 7.5625l16.953125 0l3.4375 -3.4375l4.359375 3.203125q1.375 1.15625 0 1.609375l-13.984375 0zm-20.625 0q2.296875 12.609375 9.625 21.078125q5.5 -8.015625 7.34375 -21.078125l-16.96875 0zm86.390625 -5.046875l2.0625 -2.0625l4.8125 4.8125q1.828125 1.609375 -1.609375 1.375q-3.203125 0.234375 -3.890625 0.6875l-3.671875 2.75q-1.375 0.6875 -0.6875 -0.453125l3.4375 -5.734375l-39.859375 0q0.21875 4.59375 -1.375 7.796875q-0.921875 1.609375 -2.75 1.609375q-1.609375 0 -1.609375 -1.609375q0 -1.140625 1.609375 -2.75q2.75 -3.203125 3.203125 -8.015625q0.453125 -1.15625 0.921875 -0.234375q0 1.140625 0 1.828125l18.09375 0l0 -9.15625l4.125 0.6875q2.515625 0.921875 -1.140625 1.828125l0 6.640625l18.328125 0zm-17.421875 38.046875q0 2.75 -1.59375 4.125q-1.375 1.140625 -2.75 1.375q-1.375 0.21875 -1.375 -1.375q0 -1.15625 -1.15625 -1.375l-3.890625 -0.921875q-1.140625 -0.453125 0 -0.921875l5.734375 0q2.0625 0 2.0625 -2.0625l0 -12.375l-24.984375 0l0 -1.359375l24.984375 0l0 -8.71875l2.28125 1.375l5.5 -5.5l-21.296875 0l0 -1.375l21.765625 0l2.0625 -2.0625l4.125 3.4375q1.140625 1.609375 -1.375 1.375q-1.609375 0 -4.125 1.15625l-5.96875 3.4375l0 6.875l17.421875 0l3.4375 -3.4375l4.34375 3.203125q1.375 1.140625 0 1.59375l-25.203125 0l0 13.53125zm43.078125 5.265625q15.578125 -3.671875 20.859375 -9.171875q-3.671875 -1.140625 -9.171875 -2.0625l-1.828125 2.984375q-1.375 0.6875 -2.75 -0.453125l5.71875 -10.3125l-8.703125 0l0 -1.375l9.390625 0l3.4375 -7.796875l-10.765625 0l0 -1.375l18.5625 0l3.671875 -10.765625l3.65625 1.375q1.828125 1.375 -1.609375 1.828125l-4.578125 7.5625l6.875 0l3.4375 -3.4375l4.359375 3.21875q1.375 1.140625 0 1.59375l-21.546875 0q4.359375 2.296875 0.46875 2.0625l-2.984375 5.734375l16.03125 0l2.984375 -2.984375l3.671875 2.75q1.375 1.15625 0 1.609375l-8.484375 0q-2.0625 4.8125 -5.265625 8.9375q8.015625 2.75 11.0 5.71875q1.828125 1.84375 1.828125 3.21875q0 1.59375 -1.140625 1.59375q-0.6875 0 -3.4375 -2.75q-2.984375 -2.96875 -9.859375 -5.953125q-7.328125 7.328125 -23.59375 9.390625q-1.609375 -0.21875 -0.234375 -1.140625zm-2.0625 -24.75l0 19.484375q0 2.515625 -1.59375 3.890625q-0.921875 0.921875 -2.296875 0.921875q-0.921875 0 -0.921875 -0.921875q0 -1.140625 -1.375 -1.609375l-2.96875 -0.6875q-0.921875 -0.453125 0 -0.90625l4.578125 0q1.609375 0 1.609375 -1.609375l0 -16.953125l-5.046875 3.203125q0 3.4375 -1.609375 1.609375l-2.28125 -3.671875l8.9375 -4.125l0 -11.453125l-8.25 0l0 -1.375l8.25 0l0 -12.375l3.890625 0.6875q1.828125 1.15625 -0.921875 1.609375l0 10.078125l3.890625 0l2.53125 -2.515625l3.203125 2.28125q1.375 1.15625 0 1.609375l-9.625 0l0 10.3125l9.171875 -5.046875q1.828125 0 0.21875 1.15625l-9.390625 6.40625zm22.0 -18.5625l0 -8.015625l4.125 0.6875q2.515625 0.921875 -1.140625 1.84375l0 5.484375l8.703125 0l2.96875 -2.96875l3.671875 2.75q1.375 1.140625 0 1.59375l-29.78125 0l0 -1.375l11.453125 0zm-3.890625 24.296875l-3.90625 6.875q5.5 0.453125 10.09375 1.375q2.96875 -3.671875 5.03125 -8.25l-11.21875 0zm2.0625 -13.296875q0 2.0625 -1.609375 2.0625q-1.140625 0 -1.375 -2.28125q-0.234375 -3.90625 -2.75 -7.34375q-0.6875 -1.140625 0.6875 -0.453125q5.046875 4.125 5.046875 8.015625zm60.9375 31.859375q-2.75 0 -2.75 -2.75l0 -29.109375l3.4375 1.375l12.375 0l0 -5.71875l-12.59375 0l0 2.0625q-2.984375 2.75 -2.984375 0.21875l0 -16.953125l2.75 0.46875q4.125 0.6875 0.234375 2.0625l0 3.421875l11.21875 0l2.984375 -2.96875l3.65625 2.75q1.375 1.140625 0 1.59375l-17.859375 0l0 5.96875l11.90625 0l1.375 -1.84375l3.203125 2.296875q1.609375 1.140625 -0.90625 1.609375l0 7.5625q-2.984375 2.75 -2.984375 0.21875l0 -1.375l-12.828125 0l0 5.96875l10.078125 0l2.296875 -2.296875l3.203125 2.515625q0.6875 0.921875 -0.453125 1.15625l-15.125 0l0 5.03125l10.53125 0l2.296875 -2.28125l3.203125 2.515625q0.6875 0.90625 -0.453125 1.140625l-15.578125 0l0 4.8125l11.21875 0l2.296875 -2.296875l3.203125 2.53125q0.6875 0.90625 -0.453125 1.140625l-16.265625 0l0 5.5q0 0.921875 0.921875 0.921875l14.65625 0q1.140625 0 1.609375 -1.84375l0.90625 -4.34375q0.46875 -1.15625 0.921875 0l0 4.8125q0 0.90625 0.921875 1.59375q0.6875 0.6875 0 1.375q-1.15625 1.15625 -2.53125 1.15625l-17.640625 0zm-25.890625 -11.6875l0 12.140625q-2.96875 2.75 -2.96875 0.234375l0 -28.640625l3.4375 1.828125l10.984375 0l1.375 -1.828125l3.21875 2.28125q1.59375 1.15625 -0.921875 1.609375l0 19.9375q0 2.0625 -1.609375 3.65625q-1.140625 1.15625 -2.28125 1.15625q-0.921875 0 -0.921875 -1.15625q0 -1.375 -1.375 -1.59375l-2.984375 -0.46875q-0.90625 -0.453125 0 -0.90625l4.59375 0q1.59375 0 1.59375 -1.609375l0 -6.640625l-12.140625 0zm12.140625 -13.0625l-12.140625 0l0 5.046875l12.140625 0l0 -5.046875zm-8.015625 -18.328125l0 -8.015625l2.75 0.453125q4.125 0.6875 0.234375 2.0625l0 5.5l5.03125 0l2.53125 -2.53125l3.4375 2.296875q1.375 1.140625 0 1.609375l-23.828125 0l0 -1.375l9.84375 0zm5.953125 11.0l4.8125 0l2.53125 -2.53125l3.203125 2.296875q1.375 1.140625 0 1.609375l-28.875 0l0 -1.375l8.9375 0q-0.453125 -0.6875 -1.140625 -3.21875q-0.6875 -2.515625 -2.296875 -4.578125q-0.6875 -1.140625 0.6875 -0.453125q1.84375 0.90625 3.21875 2.75q1.375 1.828125 1.375 3.65625q0 1.84375 -0.921875 1.84375l7.328125 0l2.75 -8.71875l2.75 1.15625q3.203125 1.375 -0.921875 2.0625l-3.4375 5.5zm2.0625 13.734375l-12.140625 0l0 5.28125l12.140625 0l0 -5.28125z" fill-rule="nonzero"/><path fill="#000000" fill-opacity="0.0" d="m88.0 191.66667l1104.0 0l0 456.83337l-1104.0 0z" fill-rule="evenodd"/><path fill="#000000" d="m104.58254 214.82892q0 -1.90625 1.359375 -3.25q1.359375 -1.359375 3.25 -1.359375q1.921875 0 3.28125 1.359375q1.359375 1.34375 1.359375 3.25q0 1.921875 -1.359375 3.28125q-1.359375 1.359375 -3.28125 1.359375q-1.890625 0 -3.25 -1.359375q-1.359375 -1.359375 -1.359375 -3.28125z" fill-rule="nonzero"/><path fill="#000000" d="m129.75 230.6883q-1.890625 1.75 -1.890625 0.15625l0 -19.84375q-2.484375 4.234375 -4.671875 6.28125q-0.578125 0.140625 -0.296875 -0.4375q4.96875 -8.171875 7.734375 -18.234375l2.921875 1.3125q0.71875 0.734375 -1.3125 1.03125q-1.46875 3.640625 -2.921875 6.84375l1.453125 0.4375q1.46875 0.59375 -1.015625 1.3125l0 21.140625zm2.625 -3.5l19.828125 0l2.1875 -2.1875l2.765625 2.046875q0.875 0.734375 0 1.015625l-24.78125 0l0 -0.875zm16.765625 -24.34375l-10.34375 0l0 7.875l10.34375 0l0 -7.875zm-10.34375 8.75l0 8.15625l10.34375 0l0 -8.15625l-10.34375 0zm10.34375 9.03125l-10.34375 0l0 2.78125q-1.90625 1.75 -1.90625 0.140625l0 -23.03125l2.1875 1.453125l9.625 0l0.875 -1.171875l2.046875 1.46875q0.875 0.71875 -0.59375 1.015625l0 19.09375q-1.890625 1.75 -1.890625 0.15625l0 -1.90625zm20.265625 -8.015625q-2.03125 1.3125 -1.75 -0.4375l0.4375 -3.34375l-7.28125 0l0 -0.875l7.4375 0l0.28125 -4.234375l1.609375 0.875l12.53125 0l0.734375 -1.171875l2.328125 1.609375q1.171875 0.578125 -1.015625 1.171875l-0.140625 1.75l4.375 0l1.890625 -1.90625l2.328125 1.75q0.875 0.734375 0 1.03125l-8.59375 0l-0.296875 3.78125q-1.75 1.453125 -1.75 0.140625l0 -0.4375l-13.125 0l0 0.296875zm14.734375 12.109375l-15.015625 0l0 1.3125q-1.90625 1.75 -1.90625 0.140625l0 -13.125l2.34375 1.015625l14.28125 0l1.015625 -1.015625l2.046875 1.453125q1.015625 0.734375 -0.875 1.03125l0 9.625q-2.046875 1.75 -1.890625 0.140625l0 -0.578125zm-19.390625 -22.015625q0 2.1875 -0.734375 3.34375q-0.875 1.171875 -2.1875 0.734375q-1.015625 -0.734375 0 -2.046875q1.890625 -1.890625 1.890625 -4.21875q0.15625 -0.875 0.59375 -0.15625q0.28125 0.875 0.28125 1.46875l10.9375 0l0 -4.671875l2.625 0.578125q1.015625 0.4375 -0.734375 1.03125l0 3.0625l11.671875 0l1.171875 -1.46875l2.625 2.34375q1.59375 1.453125 -0.59375 1.3125q-0.875 -0.15625 -1.890625 0.4375l-2.1875 2.1875q-0.578125 0.28125 -0.4375 -0.296875l1.609375 -3.640625l-24.640625 0zm12.671875 2.765625l-0.28125 2.484375l5.6875 0l0.140625 -2.484375l-5.546875 0zm-8.296875 11.953125l15.015625 0l0 -2.484375l-15.015625 0l0 2.484375zm19.53125 11.234375q2.1875 1.3125 1.453125 2.1875q-0.71875 0.71875 -2.03125 -0.296875q-4.234375 -2.765625 -9.34375 -3.9375q-0.578125 -0.296875 0 -0.4375q6.421875 0.4375 9.921875 2.484375zm-4.515625 -4.8125l0 -2.34375l-15.015625 0l0 2.34375l15.015625 0zm0 -3.21875l0 -2.328125l-15.015625 0l0 2.328125l15.015625 0zm-1.46875 -9.1875l0.15625 -2.609375l-5.828125 0l-0.296875 2.609375l5.96875 0zm-7.28125 -3.484375l0.296875 -2.484375l-5.40625 0l-0.28125 2.484375l5.390625 0zm-0.4375 3.484375l0.296875 -2.609375l-5.40625 0l-0.28125 2.609375l5.390625 0zm-1.171875 15.46875q1.609375 1.3125 -1.15625 1.15625q-4.234375 2.484375 -10.0625 3.796875q-1.46875 0.140625 -0.296875 -0.578125q6.859375 -2.625 10.0625 -5.546875l1.453125 1.171875zm32.234375 -17.65625q4.515625 -5.53125 6.125 -11.359375l2.609375 0.875q0.296875 0.71875 -1.015625 0.875q-0.4375 0.875 -1.015625 2.03125l3.640625 0l1.015625 -1.015625l2.1875 1.3125q0.875 0.734375 -1.015625 1.015625q-2.765625 7.578125 -10.78125 12.6875q0.28125 1.015625 0.28125 2.1875q0 1.890625 -0.4375 2.921875q-0.4375 1.015625 -1.453125 1.890625q-0.734375 0.578125 -1.75 0.578125q-0.4375 0 -0.4375 -0.875q0 -0.4375 -0.734375 -0.71875l-1.75 -0.59375q-0.578125 -0.4375 0.15625 -0.578125l2.46875 0.4375q0.59375 0 1.171875 -0.578125q0.578125 -0.59375 0.734375 -2.1875q0.140625 -1.171875 -0.296875 -3.0625q-0.4375 -2.046875 -2.625 -5.109375l2.625 -8.453125l-4.8125 0l0 29.015625q-1.890625 1.75 -1.890625 0.140625l0 -31.203125l2.1875 1.171875l4.375 0l0.875 -0.875l2.46875 1.3125q0.875 0.4375 -1.015625 0.875l-3.9375 7.71875q2.765625 2.78125 3.5 5.40625q2.328125 -1.75 4.234375 -3.9375q-1.03125 -0.4375 -1.3125 -1.609375q-0.296875 -1.15625 -1.46875 -2.328125q-1.59375 1.75 -2.625 2.46875q-0.71875 0.4375 -0.28125 -0.4375zm8.890625 -2.765625q0.875 -1.75 1.59375 -3.9375l-4.21875 0q-0.578125 1.03125 -1.015625 1.609375q1.3125 0.140625 2.46875 0.734375q1.171875 0.578125 1.171875 1.59375zm-1.75 -0.28125q-0.875 -1.171875 -2.046875 -1.75q-0.875 1.15625 -1.75 2.328125q1.75 1.171875 2.34375 1.890625q0.578125 0.734375 0.578125 1.75q1.3125 -1.59375 2.1875 -3.0625q-0.4375 0 -1.3125 -1.15625zm15.890625 7.578125q-6.859375 -4.53125 -8.3125 -15.015625l0.734375 -0.296875q0.28125 1.3125 0.71875 3.0625l4.96875 0l1.015625 -1.015625l2.046875 1.453125q1.15625 1.015625 -1.03125 1.015625l-4.21875 4.375q2.46875 2.625 6.5625 5.109375q-1.90625 0.28125 -2.484375 1.3125zm-6.125 7.140625q3.359375 1.171875 5.390625 3.203125q2.1875 2.1875 2.1875 3.5q0 1.3125 -0.71875 1.3125q-1.03125 0 -1.90625 -2.03125q-1.15625 -2.625 -5.25 -5.546875q-0.4375 -0.578125 0.296875 -0.4375zm-8.75 1.015625q0.875 0.734375 -1.15625 0.875q-4.53125 4.96875 -9.34375 7.59375q-1.3125 0.28125 -0.28125 -0.734375q4.953125 -3.796875 8.453125 -9.1875l2.328125 1.453125zm3.796875 -3.5l-8.171875 0l0 -0.875l16.484375 0l1.890625 -1.890625l2.328125 1.75q0.875 0.734375 0 1.015625l-10.640625 0l0 9.484375q0 1.453125 -0.734375 2.1875q-0.875 0.875 -1.75 0.875q-0.578125 0 -0.578125 -0.734375q0 -0.875 -0.875 -1.015625l-1.890625 -0.296875q-0.734375 -0.4375 0 -0.578125l2.90625 0q1.03125 0 1.03125 -1.015625l0 -8.90625zm-4.8125 -5.09375l0 -0.875l8.015625 0l1.609375 -1.609375l2.03125 1.453125q0.875 0.734375 0 1.03125l-11.65625 0zm9.328125 -10.9375q0.875 2.765625 2.1875 4.515625q1.453125 -2.03125 2.921875 -4.515625l-5.109375 0zm29.171875 24.9375l11.65625 0l2.1875 -2.1875l2.765625 2.03125q0.875 0.734375 0 1.03125l-32.65625 0l0 -0.875l13.859375 0l0 -28.875l2.90625 0.4375q1.609375 0.578125 -0.71875 1.171875l0 11.65625l8.59375 0l2.1875 -2.1875l2.765625 2.046875q0.875 0.71875 0 1.015625l-13.546875 0l0 14.734375z" fill-rule="nonzero"/><path fill="#000000" d="m285.86328 224.39142q0.859375 0 1.4375 0.59375q0.578125 0.59375 0.578125 1.421875q0 0.84375 -0.59375 1.4375q-0.59375 0.59375 -1.421875 0.59375q-0.84375 0 -1.4375 -0.59375q-0.59375 -0.59375 -0.59375 -1.4375q0 -0.859375 0.59375 -1.4375q0.59375 -0.578125 1.4375 -0.578125zm12.453125 0q0.828125 0 1.421875 0.59375q0.59375 0.59375 0.59375 1.421875q0 0.84375 -0.59375 1.4375q-0.59375 0.59375 -1.421875 0.59375q-0.84375 0 -1.4375 -0.59375q-0.59375 -0.59375 -0.59375 -1.4375q0 -0.859375 0.59375 -1.4375q0.59375 -0.578125 1.4375 -0.578125zm12.4375 0q0.84375 0 1.4375 0.59375q0.59375 0.59375 0.59375 1.421875q0 0.84375 -0.59375 1.4375q-0.59375 0.59375 -1.4375 0.59375q-0.828125 0 -1.421875 -0.59375q-0.59375 -0.59375 -0.59375 -1.4375q0 -0.859375 0.578125 -1.4375q0.578125 -0.578125 1.4375 -0.578125zm12.4375 0q0.859375 0 1.4375 0.59375q0.578125 0.59375 0.578125 1.421875q0 0.84375 -0.59375 1.4375q-0.59375 0.59375 -1.421875 0.59375q-0.84375 0 -1.4375 -0.59375q-0.59375 -0.59375 -0.59375 -1.4375q0 -0.859375 0.59375 -1.4375q0.59375 -0.578125 1.4375 -0.578125zm12.453125 0q0.828125 0 1.421875 0.59375q0.59375 0.59375 0.59375 1.421875q0 0.84375 -0.59375 1.4375q-0.59375 0.59375 -1.421875 0.59375q-0.84375 0 -1.4375 -0.59375q-0.59375 -0.59375 -0.59375 -1.4375q0 -0.859375 0.59375 -1.4375q0.59375 -0.578125 1.4375 -0.578125zm12.4375 0q0.84375 0 1.4375 0.59375q0.59375 0.59375 0.59375 1.421875q0 0.84375 -0.59375 1.4375q-0.59375 0.59375 -1.4375 0.59375q-0.828125 0 -1.421875 -0.59375q-0.59375 -0.59375 -0.59375 -1.4375q0 -0.859375 0.578125 -1.4375q0.578125 -0.578125 1.4375 -0.578125z" fill-rule="nonzero"/><path fill="#d8e2f3" d="m562.15424 381.66962l0 0c0 -10.608002 8.599487 -19.207458 19.207458 -19.207458l139.43085 0c5.094116 0 9.979614 2.0236206 13.581726 5.6257324c3.6021118 3.6020813 5.6257324 8.487579 5.6257324 13.581726l0 76.827484c0 10.608002 -8.599487 19.207458 -19.207458 19.207458l-139.43085 0c-10.607971 0 -19.207458 -8.599457 -19.207458 -19.207458z" fill-rule="evenodd"/><path stroke="#000000" stroke-width="6.0" stroke-miterlimit="800.0" stroke-linecap="butt" d="m562.15424 381.66962l0 0c0 -10.608002 8.599487 -19.207458 19.207458 -19.207458l139.43085 0c5.094116 0 9.979614 2.0236206 13.581726 5.6257324c3.6021118 3.6020813 5.6257324 8.487579 5.6257324 13.581726l0 76.827484c0 10.608002 -8.599487 19.207458 -19.207458 19.207458l-139.43085 0c-10.607971 0 -19.207458 -8.599457 -19.207458 -19.207458z" fill-rule="evenodd"/><path fill="#000000" d="m642.86615 414.1346q0 0.296875 -0.03125 0.53125q-0.03125 0.21875 -0.09375 0.375q-0.0625 0.140625 -0.15625 0.203125q-0.09375 0.0625 -0.203125 0.0625q-0.1875 0 -0.625 -0.296875q-0.4375 -0.296875 -1.171875 -0.65625q-0.734375 -0.359375 -1.765625 -0.65625q-1.015625 -0.296875 -2.421875 -0.296875q-1.671875 0 -3.0 0.609375q-1.328125 0.609375 -2.25 1.6875q-0.921875 1.078125 -1.421875 2.5625q-0.484375 1.484375 -0.484375 3.21875q0 1.9375 0.53125 3.4375q0.546875 1.5 1.5 2.53125q0.953125 1.03125 2.265625 1.5625q1.328125 0.53125 2.90625 0.53125q0.9375 0 1.890625 -0.21875q0.96875 -0.234375 1.796875 -0.6875l0 -5.890625l-4.6875 0q-0.265625 0 -0.40625 -0.265625q-0.125 -0.265625 -0.125 -0.828125q0 -0.296875 0.03125 -0.5q0.03125 -0.21875 0.09375 -0.34375q0.078125 -0.140625 0.171875 -0.203125q0.09375 -0.0625 0.234375 -0.0625l6.421875 0q0.171875 0 0.34375 0.0625q0.171875 0.0625 0.3125 0.1875q0.140625 0.125 0.21875 0.34375q0.078125 0.21875 0.078125 0.5l0 7.703125q0 0.40625 -0.140625 0.703125q-0.140625 0.296875 -0.59375 0.53125q-0.453125 0.21875 -1.171875 0.484375q-0.71875 0.265625 -1.484375 0.453125q-0.765625 0.1875 -1.546875 0.28125q-0.78125 0.09375 -1.546875 0.09375q-2.34375 0 -4.1875 -0.71875q-1.84375 -0.734375 -3.125 -2.078125q-1.265625 -1.34375 -1.9375 -3.21875q-0.671875 -1.875 -0.671875 -4.1875q0 -2.40625 0.71875 -4.359375q0.734375 -1.953125 2.046875 -3.328125q1.328125 -1.375 3.171875 -2.125q1.859375 -0.765625 4.109375 -0.765625q1.15625 0 2.171875 0.203125q1.015625 0.203125 1.796875 0.484375q0.796875 0.265625 1.328125 0.59375q0.546875 0.3125 0.75 0.515625q0.203125 0.203125 0.28125 0.46875q0.078125 0.265625 0.078125 0.765625zm17.421875 3.171875q0 1.515625 -0.5 2.734375q-0.5 1.21875 -1.4375 2.078125q-0.921875 0.859375 -2.28125 1.328125q-1.34375 0.46875 -3.21875 0.46875l-2.296875 0l0 7.28125q0 0.125 -0.078125 0.21875q-0.0625 0.09375 -0.21875 0.15625q-0.140625 0.046875 -0.40625 0.078125q-0.25 0.046875 -0.640625 0.046875q-0.390625 0 -0.65625 -0.046875q-0.25 -0.03125 -0.40625 -0.078125q-0.15625 -0.0625 -0.21875 -0.15625q-0.0625 -0.09375 -0.0625 -0.21875l0 -18.65625q0 -0.625 0.328125 -0.890625q0.328125 -0.265625 0.734375 -0.265625l4.328125 0q0.65625 0 1.25 0.0625q0.609375 0.046875 1.421875 0.234375q0.828125 0.171875 1.671875 0.671875q0.859375 0.484375 1.453125 1.203125q0.59375 0.71875 0.90625 1.671875q0.328125 0.9375 0.328125 2.078125zm-2.828125 0.21875q0 -1.234375 -0.46875 -2.0625q-0.453125 -0.828125 -1.140625 -1.234375q-0.671875 -0.40625 -1.40625 -0.515625q-0.71875 -0.109375 -1.40625 -0.109375l-2.484375 0l0 8.109375l2.421875 0q1.21875 0 2.015625 -0.3125q0.8125 -0.3125 1.359375 -0.859375q0.546875 -0.5625 0.828125 -1.328125q0.28125 -0.78125 0.28125 -1.6875zm19.46875 -4.984375q0 0.296875 -0.03125 0.515625q-0.03125 0.21875 -0.109375 0.359375q-0.0625 0.125 -0.171875 0.1875q-0.09375 0.0625 -0.21875 0.0625l-5.6875 0l0 17.53125q0 0.125 -0.0625 0.21875q-0.0625 0.09375 -0.21875 0.15625q-0.15625 0.046875 -0.421875 0.078125q-0.25 0.046875 -0.640625 0.046875q-0.375 0 -0.640625 -0.046875q-0.265625 -0.03125 -0.421875 -0.078125q-0.15625 -0.0625 -0.21875 -0.15625q-0.0625 -0.09375 -0.0625 -0.21875l0 -17.53125l-5.6875 0q-0.125 0 -0.234375 -0.0625q-0.09375 -0.0625 -0.15625 -0.1875q-0.0625 -0.140625 -0.109375 -0.359375q-0.03125 -0.21875 -0.03125 -0.515625q0 -0.296875 0.03125 -0.515625q0.046875 -0.234375 0.109375 -0.375q0.0625 -0.140625 0.15625 -0.203125q0.109375 -0.0625 0.234375 -0.0625l14.0625 0q0.125 0 0.21875 0.0625q0.109375 0.0625 0.171875 0.203125q0.078125 0.140625 0.109375 0.375q0.03125 0.21875 0.03125 0.515625z" fill-rule="nonzero"/><path fill="#000000" fill-opacity="0.0" d="m88.0 391.40356l382.46152 0l0 48.46878l-382.46152 0z" fill-rule="evenodd"/><path fill="#000000" d="m146.60576 414.24857l-2.0 -2.0l-21.75 0.875q-0.125 1.0 -0.625 0.5l-0.625 -3.25l5.375 0q3.0 -5.0 5.625 -10.0l2.625 1.0q0.75 0.625 -0.5 0.875q-2.5 4.125 -5.25 8.125l13.375 -0.125q-2.75 -2.625 -5.0 -4.25l1.875 -1.625q4.875 3.5 9.0 7.75l-2.125 2.125zm-4.875 14.0l0 -1.375l-13.375 0l0 1.625l-2.5 0l0 -12.5l18.375 0l0 12.25l-2.5 0zm-13.375 -3.75l13.375 0l0 -6.125l-13.375 0l0 6.125zm48.25 -9.75l0 -5.375l-2.125 0.125q-0.375 1.0 -0.75 0l-0.25 -1.5l1.25 0l1.5 -1.75l-2.125 -1.75l2.625 -4.125l1.625 0.75q0.625 0.5 -0.375 0.625l-1.875 2.375l1.0 0.875l1.75 -2.375l1.5 0.75q0.625 0.5 -0.375 0.625l-3.25 4.0l2.875 -0.125l-0.75 -1.25l1.125 -0.625q1.0 1.5 1.75 3.0l-1.25 0.75l-0.375 -0.75l-1.75 0.25l0 5.5l-1.75 0zm-17.625 -0.75q0.625 -1.75 1.125 -4.0l1.375 0.125q0.625 0.25 0 0.5q-0.375 1.875 -1.0 3.625l-1.5 -0.25zm-0.375 -6.25l1.75 0l1.5 -2.0l-2.5 -1.625l-1.75 2.25q-1.5 -1.5 -3.875 -3.125l1.625 -2.125q2.25 1.25 3.875 2.875l0.875 -1.25l0.5 0.375l1.875 -2.875l1.25 0.5q0.875 0.375 -0.25 0.75l-1.625 2.375l0.875 0.625l1.75 -2.25l1.25 0.75q0.625 0.5 -0.25 0.625l-3.25 4.125l2.875 -0.125l-0.75 -1.375l1.25 -0.75q1.0 1.75 1.75 3.375l-1.375 0.625l-0.25 -0.625l-1.875 0.125l0 5.75l-1.75 0l0 -5.625l-2.375 0.125q-0.5 1.125 -0.875 -0.125l-0.25 -1.375zm8.125 -4.75l6.875 0l0 1.5l-6.875 0l0 -1.5zm-12.25 5.375q2.125 1.125 3.875 2.75l-1.625 2.5q-1.75 -1.75 -3.875 -3.125l1.625 -2.125zm4.625 9.75q-1.5 5.375 -3.625 9.125q0.25 1.625 -0.875 0.875l-2.25 -2.0q3.0 -4.25 4.5 -9.5l2.25 1.5zm19.0 -2.25l0 4.875l-13.75 0l-0.375 1.5l16.5 0l-1.375 4.25q-0.875 2.625 -3.25 2.625l-3.75 0l-0.625 -2.375l3.375 0q1.5 0 1.75 -0.875l0.5 -1.625l-13.625 0l-0.5 1.75l-2.5 -0.25l1.875 -6.5l13.25 0l0 -1.375l-14.75 0l0 -2.0l17.25 0zm-10.625 -10.375l5.375 0l0 1.5l-5.375 0l0 -1.5zm0 -5.0l5.375 0l0 1.5l-5.375 0l0 -1.5zm0 7.375l5.375 0l0 1.5l-5.375 0l0 -1.5zm-1.875 2.0q0.75 1.25 1.125 2.875l-1.25 0.625q-0.5 -1.75 -1.125 -3.0l1.25 -0.5zm10.5 0.5q0.75 0.25 0 0.5q-0.375 1.75 -1.0 3.5l-1.375 -0.5q0.625 -1.75 1.125 -3.875l1.25 0.375zm4.25 3.625q-0.875 -1.625 -1.5 -3.375l1.375 -0.75q0.75 1.875 1.5 3.25l-1.375 0.875zm-8.875 -2.125l-2.625 0l0 1.375l2.625 0l0 -1.375zm-4.375 2.875l0 -4.375l6.125 0l0 4.375l-6.125 0zm38.625 10.5q-3.125 2.75 -6.25 3.75l-1.375 -2.5q3.375 -1.0 5.75 -2.875q-2.25 -2.625 -3.5 -5.75l-1.875 0l0 -2.375l10.75 0l0.25 -0.5l2.125 1.625q0.125 0.5 -0.625 0.625q-1.375 3.625 -3.625 6.25q1.875 1.5 6.5 2.625l-0.875 2.625q-3.625 -0.75 -7.25 -3.5zm-3.0 -7.375q1.625 3.125 2.875 4.125q1.125 -1.125 2.625 -4.125l-5.5 0zm-7.375 6.0l0 -2.125l-4.625 0l0 2.5l4.625 -0.375zm2.125 5.125l-2.125 0l0 -3.125l-8.75 1.25q-0.625 0.875 -0.75 0.375l-0.75 -3.0l3.5 -0.125l0 -10.75l-3.875 0l0 -2.0l28.625 0l0 2.0l-15.875 0l0 15.375zm-8.0 -18.875l0 -9.125l19.125 0l0 9.125l-19.125 0zm1.25 3.5l0 2.0l4.625 0l0 -2.0l-4.625 0zm0 4.0l0 2.125l4.625 0l0 -2.125l-4.625 0zm1.25 -11.125l0 1.625l14.125 0l0 -1.625l-14.125 0zm0 -3.5l0 1.5l14.125 0l0 -1.5l-14.125 0zm40.375 -3.0q1.25 0.25 0.125 1.0l0 2.0l12.5 0l0 2.375l-27.875 0l0 -2.375l12.5 0l0 -3.0l2.75 0zm4.75 9.0l-12.0 0l0 2.625l12.0 0l0 -2.625zm-14.125 4.625l0 -6.625l16.25 0l0 6.625l-16.25 0zm20.5 13.0q0 2.0 -2.0 2.0l-2.375 0l-0.5 -2.375l1.875 0q0.5 0 0.5 -0.5l0 -8.0l-19.75 0l0 11.25l-2.5 0l0 -13.625l24.75 0l0 11.25zm-16.625 -1.0l0 1.375l-2.125 0l0 -7.75l12.75 0l0 6.375l-10.625 0zm0 -2.0l8.5 0l0 -2.375l-8.5 0l0 2.375zm40.000015 -15.25q-1.25 3.5 -4.0 6.625l-1.875 -2.25q4.25 -4.25 5.375 -12.125l2.625 0.875q1.125 0.5 -0.125 0.75q-0.375 1.75 -1.0 3.75l9.0 0l-0.625 17.0q-0.125 5.0 -4.0 5.0l-3.5 0l-0.375 -2.375l3.25 0q1.75 0 1.875 -2.25l0.625 -15.0l-7.25 0zm1.5 11.625q-1.75 -2.5 -3.875 -4.5l2.125 -2.25q2.5 2.25 4.0 4.375l-2.25 2.375zm-14.750015 -14.0q0.75 -2.375 1.375 -5.5l3.0000153 1.125q0.5 0.5 -0.375 0.625q-0.375 1.625 -1.375 3.75l4.625 0l0 20.625l-2.5 0l0 -1.5l-5.5000153 0l0 2.5l-2.5 0l0 -21.625l3.25 0zm4.7500153 2.375l-5.5000153 0l0 5.5l5.5000153 0l0 -5.5zm0 7.875l-5.5000153 0l0 6.5l5.5000153 0l0 -6.5zm49.25 -9.75q1.25 0.25 0.125 1.0l0 20.0l-2.875 0l0 -2.0l-19.125 0l0 2.5l-2.875 0l0 -21.5l2.75 0q1.25 0.25 0.125 1.0l0 15.25l8.0 0l0 -21.5l2.75 0q1.25 0.25 0.125 1.0l0 20.5l8.25 0l0 -16.25l2.75 0zm5.5 19.875q4.875 -2.125 6.625 -8.75l2.75 0.75q0.5 0.5 -0.375 0.625l-0.875 2.25q2.375 2.75 5.125 3.625l0 -8.5l-12.25 0l0 -2.375l27.0 0l0 2.375l-12.25 0l0 2.875l9.0 0l0 2.375l-9.0 0l0 4.0l12.375 0l-0.625 2.375l-10.0 0q-6.75 0 -10.375 -4.625q-2.5 3.875 -5.625 5.375l-1.5 -2.375zm21.0 -20.75l0 -2.375l-13.375 0l0 2.375l13.375 0zm2.5 6.375l-18.375 0l0 -10.75l18.375 0l0 10.75zm-2.5 -2.0l0 -2.375l-13.375 0l0 2.375l13.375 0zm23.125 8.75l-4.25 0q-0.5 5.125 -5.875 10.125l-1.25 -2.5q3.75 -3.375 4.625 -7.625l-4.5 0l0 -2.375l4.75 0l0.125 -4.375l-4.5 0l0 -2.375l4.5 0l0 -5.375l-4.625 0l0 -2.375l13.5 0l0 21.25q0 5.0 -3.0 5.0l-2.75 0l-0.625 -2.75l2.5 0q1.375 0 1.375 -2.25l0 -4.375zm12.875 -0.625q-0.375 -1.625 -3.375 -5.5l2.375 -8.625l-4.5 0l0 24.75l-2.5 0l0 -27.125l7.75 0l0.5 -0.5l2.25 1.875l-0.5 0.5l-2.75 8.625q5.75 6.5 3.25 11.125q-0.875 1.625 -3.0 1.625l-2.375 0l-0.125 -2.75l1.75 0q2.125 0 1.25 -4.0zm-12.875 -13.875l-3.875 0l0 5.375l3.875 0l0 -5.375zm0 12.125l0 -4.375l-3.875 0l-0.125 4.375l4.0 0zm35.875 -13.125l11.375 0l0 2.375l-22.75 0l0 13.25q0 4.875 -2.875 9.625l-2.5 -1.875q2.875 -4.375 2.875 -9.625l0 -13.75l11.0 0l0 -3.125l2.75 0q1.25 0.25 0.125 1.0l0 2.125zm1.125 12.875q3.375 -4.125 3.875 -9.25l2.5 0.5q0.75 0.25 0 0.625q-0.375 1.75 -0.75 3.0q3.125 1.5 4.875 3.25l-1.625 2.5q-2.0 -2.0 -4.0 -3.625q-1.25 2.875 -2.875 4.625l-2.0 -1.5l0 2.375l8.625 0l0 2.375l-8.625 0l0 4.375l11.0 0l0 2.375l-23.5 0l0 -2.375l10.0 0l0 -4.375l-7.625 0l0 -2.375l7.625 0l0 -4.125l-1.625 2.375q-1.75 -1.75 -3.25 -2.875q-1.125 2.375 -2.75 4.125l-2.0 -1.875q3.5 -3.5 3.875 -9.0l2.5 0.5q0.75 0.25 0 0.625q-0.375 2.375 -0.75 3.5q1.5 0.375 4.0 2.375l0 -7.75l2.375 0q1.0 0.125 0.125 0.75l0 8.875zm19.5 -5.0q0 -1.25 0.625 -2.5q0.5 -1.0 1.375 -1.875q2.5 -2.5 7.75 -2.5q4.875 0 6.875 2.0q1.625 1.625 1.625 3.375q0 1.5 -0.75 2.625q-0.875 1.25 -2.5 2.0q-2.5 1.125 -3.625 2.0q-0.625 0.5 -0.625 1.375l0 1.0l-2.75 0l0 -1.875q0 -1.75 1.25 -2.5q2.75 -1.625 4.375 -2.375q1.375 -0.75 1.375 -2.125q0 -1.0 -0.75 -1.75q-1.125 -1.125 -4.5 -1.125q-3.625 0 -5.125 1.5q-1.375 1.375 -1.375 2.75l0 0.625l-3.25 0l0 -0.625zm7.625 11.0l3.5 0l0 3.625l-3.5 0l0 -3.625z" fill-rule="nonzero"/><path fill="#000000" fill-opacity="0.0" d="m462.15424 418.84808l83.384766 0" fill-rule="evenodd"/><path stroke="#000000" stroke-width="6.0" stroke-miterlimit="800.0" stroke-linecap="butt" d="m462.15424 418.84808l47.384766 0" fill-rule="evenodd"/><path fill="#000000" stroke="#000000" stroke-width="6.0" stroke-linecap="butt" d="m509.539 428.75848l27.228577 -9.9104l-27.228577 -9.91037z" fill-rule="evenodd"/><path fill="#000000" fill-opacity="0.0" d="m862.4601 287.4992l177.38452 0l0 48.46878l-177.38452 0z" fill-rule="evenodd"/><path fill="#000000" d="m888.5851 301.5942l0 7.0l9.5 0l0 2.75l-9.5 0l0 8.75l12.375 0l0 2.75l-26.875 0l0 -2.75l11.625 0l0 -8.75l-8.625 0l0 -2.75l8.625 0l0 -7.0l-10.125 0l0 -2.75l24.25 0l0 2.75l-11.25 0zm4.125 10.5q2.375 1.625 4.5 4.75l-2.75 1.875q-1.75 -2.875 -4.0 -4.875l2.25 -1.75zm39.125 -9.5q1.25 0.25 0.125 1.0l0 20.0l-2.875 0l0 -2.0l-19.125 0l0 2.5l-2.875 0l0 -21.5l2.75 0q1.25 0.25 0.125 1.0l0 15.25l8.0 0l0 -21.5l2.75 0q1.25 0.25 0.125 1.0l0 20.5l8.25 0l0 -16.25l2.75 0z" fill-rule="nonzero"/><path fill="#000000" fill-opacity="0.0" d="m797.09607 184.00903l361.19043 0l0 54.93123l-361.19043 0z" fill-rule="evenodd"/><path fill="#ff0000" d="m848.78503 218.30215q0.296875 1.3125 -0.71875 1.609375q-0.734375 0.140625 -1.3125 -1.015625q-1.3125 -2.34375 -3.0625 -3.359375q-0.734375 -0.4375 0.140625 -0.4375q4.375 0.875 4.953125 3.203125zm0 -8.453125q0.296875 1.3125 -0.71875 1.609375q-0.875 0.28125 -1.453125 -1.3125q-1.03125 -1.75 -2.484375 -2.78125q-0.578125 -0.28125 0.140625 -0.4375q3.640625 0.875 4.515625 2.921875zm8.03125 3.359375q-0.296875 4.515625 -0.734375 7.578125l2.328125 0l1.90625 -1.890625l2.46875 1.75q0.875 0.71875 0 1.015625l-6.84375 0q-0.15625 1.453125 -0.4375 2.328125q-0.296875 1.171875 -1.3125 2.1875q-0.875 0.734375 -1.75 0.734375q-0.59375 0 -0.59375 -0.578125q0 -0.59375 -0.875 -1.03125l-1.890625 -0.71875q-0.578125 -0.59375 0.296875 -0.59375l2.328125 0.4375q1.609375 0.296875 2.046875 -1.453125l0.28125 -1.3125l-16.765625 0l-0.578125 3.640625q-1.890625 1.46875 -1.890625 0.15625l1.75 -12.25l-5.546875 0l0 -0.875l5.6875 0l1.015625 -8.609375l1.90625 1.453125l15.296875 0l0.734375 -1.15625l2.625 1.75q0.875 1.015625 -1.171875 1.015625l-0.28125 5.546875l2.1875 0l2.03125 -2.046875l2.625 1.890625q0.875 0.734375 0 1.03125l-6.84375 0zm-2.625 7.578125q0.4375 -2.921875 0.71875 -7.578125l-16.46875 0l-1.015625 7.578125l16.765625 0zm-15.609375 -8.453125l16.328125 0l0.296875 -6.28125l-15.890625 0l-0.734375 6.28125zm0 -11.953125q-3.34375 4.515625 -7.140625 7.578125q-1.015625 0.28125 -0.4375 -0.59375q5.109375 -5.390625 8.609375 -13.546875l2.90625 1.453125q0.734375 0.734375 -1.453125 0.875q-1.015625 1.75 -2.046875 3.359375l17.640625 0l2.046875 -2.046875l2.625 1.890625q0.875 0.734375 0 1.03125l-22.75 0zm32.234375 20.40625q0.71875 -3.9375 0.140625 -5.546875q-0.140625 -0.578125 -1.3125 -0.875l-1.75 -0.28125l0 -0.59375l4.078125 0l7.734375 -16.328125q0.734375 -0.71875 0.734375 0.15625l-6.859375 16.609375q-0.875 2.1875 -0.296875 5.25q0.296875 1.171875 0.296875 2.921875q0 1.75 -1.609375 1.75q-1.75 0 -1.15625 -3.0625zm12.09375 0.734375q-4.21875 4.21875 -11.65625 5.6875q-1.03125 0 -0.296875 -0.59375q8.171875 -2.46875 11.375 -7.0q3.78125 -5.390625 3.78125 -12.390625l0 -3.34375l-2.765625 0q-2.765625 5.671875 -6.703125 9.46875q-0.875 0.4375 -0.296875 -0.578125q5.25 -6.71875 8.171875 -18.671875l2.625 0.875q1.890625 0.4375 -0.875 1.46875q-1.171875 3.640625 -2.484375 6.5625l11.078125 0l1.609375 -1.609375l3.359375 2.765625q0.71875 0.734375 -0.4375 0.875q-1.90625 -0.140625 -2.78125 0.578125l-3.5 3.5q-0.71875 0.4375 -0.4375 -0.28125l2.484375 -4.953125l-7.140625 0l0 3.921875q2.765625 12.40625 13.5625 16.1875q-2.34375 0.4375 -2.921875 2.046875q-8.609375 -5.390625 -10.796875 -15.890625q-0.71875 7.140625 -4.953125 11.375zm-10.5 -19.546875q-1.015625 -2.46875 -3.78125 -4.375q-0.734375 -0.578125 0.4375 -0.4375q5.828125 1.75 5.828125 5.109375q0 1.015625 -1.171875 1.015625q-0.71875 0 -1.3125 -1.3125zm54.390625 11.953125q-0.875 -2.46875 -3.359375 -4.8125q-0.4375 -0.578125 0.296875 -0.4375q5.109375 2.1875 5.109375 5.25q0 1.3125 -1.03125 1.3125q-0.578125 0 -1.015625 -1.3125zm-7.28125 -4.21875q4.078125 -6.421875 5.96875 -16.1875l2.765625 0.875q2.046875 0.578125 -0.578125 1.3125l-2.484375 5.984375l9.484375 0l0.875 -1.171875l2.046875 1.453125q0.875 0.734375 -0.59375 1.03125l0 11.359375q0 7.0 -2.03125 9.484375q-1.171875 1.453125 -3.359375 2.328125q-2.046875 0.875 -2.046875 -0.28125q0 -1.171875 -0.71875 -1.3125l-2.625 -0.734375q-0.734375 -0.4375 0.140625 -0.578125l3.5 0.28125q1.453125 0.15625 2.921875 -0.71875q2.328125 -1.609375 2.328125 -8.75l0 -11.515625l-10.359375 0q-2.1875 4.65625 -4.65625 7.421875q-0.734375 0.4375 -0.578125 -0.28125zm-0.875 12.6875q-1.90625 1.75 -1.90625 0.140625l0 -2.1875l-8.453125 0l0 3.5q-1.890625 1.75 -1.890625 0.140625l0 -23.46875l2.1875 1.171875l2.03125 0l1.46875 -8.171875l2.1875 0.578125q2.625 0.59375 -0.4375 1.75l-2.34375 5.84375l4.8125 0l0.875 -1.171875l2.046875 1.453125q0.875 0.734375 -0.578125 1.03125l0 19.390625zm-1.90625 -19.828125l-8.453125 0l0 7.578125l8.453125 0l0 -7.578125zm-8.453125 8.453125l0 8.453125l8.453125 0l0 -8.453125l-8.453125 0zm47.6875 -5.25q6.109375 -6.125 8.296875 -13.125l2.484375 0.875q1.609375 0.578125 -0.296875 1.3125q3.65625 5.6875 10.0625 8.75q-1.59375 0.578125 -2.46875 1.75q-4.671875 -3.359375 -8.03125 -9.921875q-3.640625 6.5625 -9.46875 10.796875q-1.171875 0.578125 -0.578125 -0.4375zm10.34375 3.0625q0.875 0.71875 -0.578125 1.015625l0 14.296875q0 1.15625 -0.59375 1.75q-0.4375 0.4375 -1.453125 0.71875q-0.875 0.296875 -0.875 -0.4375q0 -0.4375 -0.4375 -0.71875l-1.890625 -0.59375q-0.296875 -0.28125 0 -0.4375l2.328125 0q1.015625 0 1.015625 -1.015625l0 -4.375l-4.21875 0l0 7.734375q-1.890625 1.75 -1.890625 0.140625l0 -19.390625l2.171875 1.015625l3.5 0l0.875 -1.171875l2.046875 1.46875zm8.890625 -1.46875q1.171875 0.734375 -0.578125 1.03125l0 15.453125q0 1.171875 -0.578125 1.75q-0.4375 0.4375 -1.46875 0.734375q-0.875 0.28125 -0.875 -0.4375q0 -0.4375 -0.4375 -0.734375l-1.890625 -0.578125q-0.296875 -0.296875 0 -0.4375l2.328125 0q1.03125 0 1.03125 -1.03125l0 -16.1875l2.46875 0.4375zm-33.234375 12.109375l0 -0.875l6.265625 0l0 -4.078125l-3.0625 0l0 1.59375q-1.890625 1.75 -1.890625 0.15625l0 -13.859375l2.1875 1.03125l2.765625 0l0 -3.5l-6.265625 0l0 -0.875l6.265625 0l0 -5.546875l2.484375 0.4375q1.15625 0.734375 -0.59375 1.015625l0 4.09375l3.359375 0l1.609375 -1.609375l2.03125 1.453125q0.875 0.734375 0 1.03125l-7.0 0l0 3.5l2.625 0l0.875 -1.171875l2.046875 1.453125q0.875 0.734375 -0.578125 1.03125l0 10.78125q-1.90625 1.75 -1.90625 0.140625l0 -1.15625l-3.0625 0l0 4.078125l3.21875 0l1.59375 -1.609375l2.046875 1.46875q0.875 0.71875 0 1.015625l-6.859375 0l0 7.140625q-1.890625 1.75 -1.890625 0.15625l0 -7.296875l-6.265625 0zm6.265625 -15.15625l-3.0625 0l0 4.21875l3.0625 0l0 -4.21875zm4.953125 0l-3.0625 0l0 4.21875l3.0625 0l0 -4.21875zm-4.953125 5.09375l-3.0625 0l0 4.234375l3.0625 0l0 -4.234375zm4.953125 0l-3.0625 0l0 4.234375l3.0625 0l0 -4.234375zm7.296875 -5.53125l5.53125 0l1.609375 -1.609375l2.046875 1.453125q0.875 0.734375 0 1.03125l-9.1875 0l0 -0.875zm9.90625 5.53125q1.171875 0.734375 -0.578125 1.015625l0 9.921875q-1.890625 1.75 -1.890625 0.140625l0 -11.515625l2.46875 0.4375zm-10.78125 3.796875l4.21875 0l0 -3.796875l-4.21875 0l0 3.796875zm0 4.953125l4.21875 0l0 -4.078125l-4.21875 0l0 4.078125zm49.71875 -8.609375q-1.890625 1.75 -1.890625 0.15625l0 -1.75l-10.0625 0l0 14.71875l11.515625 0l0 -10.9375l2.484375 0.4375q1.15625 0.734375 -0.59375 1.03125l0 12.96875q-1.890625 1.75 -1.890625 0.15625l0 -2.78125l-24.640625 0l0 2.484375q-1.890625 1.75 -1.890625 0.140625l0 -14.578125l2.46875 0.4375q1.171875 0.734375 -0.578125 1.015625l0 9.625l11.234375 0l0 -14.71875l-9.484375 0l0 1.453125q-1.890625 1.75 -1.890625 0.140625l0 -12.671875l2.46875 0.4375q1.171875 0.71875 -0.578125 1.015625l0 8.75l9.484375 0l0 -12.25l2.46875 0.4375q1.171875 0.734375 -0.578125 1.015625l0 10.796875l10.0625 0l0 -10.203125l2.46875 0.4375q1.171875 0.71875 -0.578125 1.015625l0 11.21875zm16.921875 -9.90625l2.46875 0l1.46875 -1.75l2.1875 1.75q1.015625 -1.3125 2.03125 -3.5l2.046875 1.3125q1.890625 1.453125 -0.875 1.171875q-2.921875 4.21875 -5.828125 7.578125l3.5 0l1.890625 -1.890625l2.328125 1.734375q0.875 0.734375 0 1.03125l-8.453125 0q-2.484375 2.625 -4.8125 4.8125l7.140625 0l0.875 -1.171875l2.046875 1.453125q0.875 0.734375 -0.578125 1.03125l0 12.828125q-1.90625 1.75 -1.90625 0.140625l0 -1.015625l-7.71875 0l0 1.890625q-1.90625 1.75 -1.90625 0.15625l0 -13.5625q-2.625 2.328125 -5.828125 4.21875q-0.875 0.296875 -0.4375 -0.578125q3.359375 -2.484375 6.265625 -5.390625l0 -1.171875l0.734375 0.578125q2.1875 -2.1875 3.9375 -4.21875l-10.796875 0l0 -0.875l8.3125 0l0 -5.6875l-6.703125 0l0 -0.875l6.703125 0l0 -5.546875l2.484375 0.4375q1.171875 0.734375 -0.578125 1.03125l0 4.078125zm21.71875 17.5q0 -3.796875 -4.8125 -9.046875l3.359375 -10.203125l-6.125 0l0 28.875q-1.90625 1.75 -1.90625 0.140625l0 -31.5l2.1875 1.609375l5.546875 0l0.875 -1.171875l2.1875 1.609375q1.3125 1.3125 -0.875 1.015625l-4.375 9.484375q5.984375 5.53125 5.984375 9.46875q0 4.234375 -3.5 5.6875q-1.609375 0.59375 -1.609375 -0.578125q0 -0.4375 -0.734375 -0.734375l-2.03125 -0.578125q-0.734375 -0.4375 0 -0.578125l3.203125 0.4375q1.015625 0 1.75 -0.875q0.875 -1.171875 0.875 -3.0625zm-20.40625 -10.9375q2.1875 -2.625 4.375 -5.6875l-5.6875 0l0 5.6875l1.3125 0zm-3.5 11.65625l7.71875 0l0 -5.09375l-7.71875 0l0 5.09375zm0 6.421875l7.71875 0l0 -5.546875l-7.71875 0l0 5.546875zm49.421875 -16.625q5.109375 1.453125 9.1875 4.234375q3.9375 2.625 3.9375 4.078125q0 1.171875 -1.015625 1.171875q-0.875 0 -2.484375 -2.046875q-2.921875 -3.640625 -9.765625 -6.859375q-0.734375 -0.578125 0.140625 -0.578125zm-3.9375 -3.203125q-6.84375 8.015625 -14.578125 12.53125q-0.875 0.296875 -0.4375 -0.4375q10.9375 -8.3125 16.765625 -17.921875l-15.75 0l0 -0.875l26.25 0l2.1875 -2.1875l2.765625 2.03125q0.875 0.734375 0 1.03125l-14.140625 0l1.3125 0.875q1.171875 0.71875 -1.015625 0.875q-1.3125 1.75 -2.625 3.203125l1.75 0.578125q1.15625 0.734375 -0.59375 1.015625l0 20.421875q-1.890625 1.75 -1.890625 0.140625l0 -21.28125zm26.984375 -8.015625l23.765625 0l0.875 -1.171875l2.03125 1.453125q0.875 0.734375 -0.578125 1.03125l0 24.484375q0 1.75 -1.015625 2.625q-0.4375 0.4375 -1.75 0.875q-0.875 0.296875 -0.875 -0.875q0 -0.71875 -0.734375 -1.015625l-2.484375 -0.4375q-0.71875 -0.296875 0 -0.578125l3.65625 0q1.3125 0 1.3125 -1.3125l0 -24.203125l-24.5 0l0 28.421875q-1.890625 1.75 -1.890625 0.15625l0 -30.765625l2.1875 1.3125zm16.03125 20.109375l0 -7.28125l-8.890625 0l0 7.28125l8.890625 0zm2.484375 -7.875q0.875 0.734375 -0.59375 1.03125l0 9.46875q-1.890625 1.75 -1.890625 0.15625l0 -1.90625l-8.890625 0l0 3.5q-1.890625 1.75 -1.890625 0.15625l0 -13.5625l2.1875 0.875l8.15625 0l0.875 -1.171875l2.046875 1.453125zm-15.75 -6.40625l13.84375 0l2.1875 -2.1875l2.78125 2.046875q0.875 0.71875 0 1.015625l-18.8125 0l0 -0.875z" fill-rule="nonzero"/><path fill="#000000" fill-opacity="0.0" d="m862.45996 395.84894l316.61633 0l0 48.46875l-316.61633 0z" fill-rule="evenodd"/><path fill="#000000" d="m879.19434 409.0377q-1.484375 3.140625 -2.21875 6.453125q-0.71875 3.296875 -0.71875 6.640625q0 3.359375 0.734375 6.65625q0.75 3.296875 2.171875 6.46875q0.078125 0.1875 0.078125 0.3125q0.015625 0.140625 -0.09375 0.21875q-0.109375 0.09375 -0.34375 0.125q-0.21875 0.046875 -0.609375 0.046875q-0.28125 0 -0.484375 -0.015625q-0.203125 -0.015625 -0.359375 -0.0625q-0.140625 -0.046875 -0.234375 -0.109375q-0.09375 -0.0625 -0.140625 -0.140625q-0.84375 -1.59375 -1.484375 -3.234375q-0.640625 -1.625 -1.078125 -3.3125q-0.4375 -1.6875 -0.65625 -3.40625q-0.21875 -1.734375 -0.21875 -3.5q0 -1.765625 0.234375 -3.484375q0.25 -1.71875 0.6875 -3.40625q0.453125 -1.703125 1.09375 -3.34375q0.640625 -1.640625 1.4375 -3.25q0.015625 -0.0625 0.078125 -0.109375q0.078125 -0.046875 0.203125 -0.09375q0.125 -0.046875 0.34375 -0.0625q0.21875 -0.03125 0.5625 -0.03125q0.359375 0 0.578125 0.046875q0.21875 0.046875 0.34375 0.125q0.125 0.078125 0.140625 0.203125q0.015625 0.125 -0.046875 0.265625zm19.796875 20.578125q0.125 0.34375 0.125 0.5625q0.015625 0.203125 -0.109375 0.3125q-0.125 0.109375 -0.421875 0.140625q-0.28125 0.03125 -0.765625 0.03125q-0.484375 0 -0.78125 -0.03125q-0.28125 -0.015625 -0.4375 -0.0625q-0.140625 -0.0625 -0.21875 -0.15625q-0.0625 -0.09375 -0.125 -0.234375l-1.734375 -4.921875l-8.40625 0l-1.65625 4.859375q-0.046875 0.140625 -0.125 0.25q-0.078125 0.09375 -0.234375 0.171875q-0.140625 0.0625 -0.421875 0.09375q-0.265625 0.03125 -0.703125 0.03125q-0.453125 0 -0.75 -0.046875q-0.28125 -0.03125 -0.40625 -0.140625q-0.109375 -0.109375 -0.109375 -0.3125q0.015625 -0.21875 0.140625 -0.5625l6.78125 -18.78125q0.0625 -0.171875 0.15625 -0.28125q0.109375 -0.109375 0.296875 -0.171875q0.203125 -0.0625 0.5 -0.078125q0.3125 -0.03125 0.78125 -0.03125q0.5 0 0.828125 0.03125q0.328125 0.015625 0.53125 0.078125q0.203125 0.0625 0.3125 0.1875q0.109375 0.109375 0.171875 0.28125l6.78125 18.78125zm-8.703125 -16.578125l-0.015625 0l-3.484375 10.078125l7.03125 0l-3.53125 -10.078125zm17.0 9.140625q0 1.765625 -0.21875 3.5q-0.21875 1.71875 -0.65625 3.40625q-0.4375 1.6875 -1.078125 3.3125q-0.625 1.640625 -1.46875 3.234375q-0.046875 0.078125 -0.140625 0.140625q-0.09375 0.0625 -0.25 0.109375q-0.140625 0.046875 -0.34375 0.0625q-0.203125 0.015625 -0.484375 0.015625q-0.40625 0 -0.640625 -0.046875q-0.21875 -0.03125 -0.328125 -0.125q-0.09375 -0.078125 -0.09375 -0.21875q0.015625 -0.125 0.09375 -0.3125q1.4375 -3.15625 2.171875 -6.453125q0.734375 -3.3125 0.734375 -6.671875q0 -3.34375 -0.734375 -6.640625q-0.734375 -3.3125 -2.203125 -6.453125q-0.0625 -0.140625 -0.046875 -0.265625q0.015625 -0.125 0.140625 -0.203125q0.125 -0.078125 0.34375 -0.125q0.21875 -0.046875 0.578125 -0.046875q0.328125 0 0.546875 0.03125q0.21875 0.015625 0.34375 0.0625q0.140625 0.046875 0.203125 0.09375q0.0625 0.046875 0.09375 0.109375q1.609375 3.203125 2.515625 6.59375q0.921875 3.375 0.921875 6.890625z" fill-rule="nonzero"/><path fill="#000000" d="m933.8662 420.56894l-2.5 0l0 -8.875l-9.875 0l0 4.25l-2.5 0l0 -6.25l12.375 0l0 -2.0l-9.625 0l0 -2.375l21.875 0l0 2.375l-9.75 0l0 2.0l12.25 0l0 6.0l-2.5 0l0 -4.0l-9.75 0l0 8.875zm-3.875 -1.375l-7.125 0l0 -2.0l7.125 0l0 2.0zm0 -3.75l-7.125 0l0 -2.0l7.125 0l0 2.0zm12.625 0l-7.5 0l0 -2.0l7.5 0l0 2.0zm1.25 18.125l-2.5 0l0 -0.875l-19.625 0l0 -2.375l19.625 0l0 -2.5l-19.625 0l0 -2.0l19.625 0l0 -1.875l-19.625 0l0 -2.375l22.125 0l0 12.0zm-1.25 -14.375l-7.5 0l0 -2.0l7.5 0l0 2.0zm34.375 -8.25q1.25 0.25 0.125 1.0l0 20.0l-2.875 0l0 -2.0l-19.125 0l0 2.5l-2.875 0l0 -21.5l2.75 0q1.25 0.25 0.125 1.0l0 15.25l8.0 0l0 -21.5l2.75 0q1.25 0.25 0.125 1.0l0 20.5l8.25 0l0 -16.25l2.75 0z" fill-rule="nonzero"/><path fill="#000000" d="m995.58496 409.0377q-1.484375 3.140625 -2.21875 6.453125q-0.71875 3.296875 -0.71875 6.640625q0 3.359375 0.734375 6.65625q0.75 3.296875 2.171875 6.46875q0.078125 0.1875 0.078125 0.3125q0.015625 0.140625 -0.09375 0.21875q-0.109375 0.09375 -0.34375 0.125q-0.21875 0.046875 -0.609375 0.046875q-0.28125 0 -0.484375 -0.015625q-0.203125 -0.015625 -0.359375 -0.0625q-0.140625 -0.046875 -0.234375 -0.109375q-0.09375 -0.0625 -0.140625 -0.140625q-0.84375 -1.59375 -1.484375 -3.234375q-0.640625 -1.625 -1.078125 -3.3125q-0.4375 -1.6875 -0.65625 -3.40625q-0.21875 -1.734375 -0.21875 -3.5q0 -1.765625 0.234375 -3.484375q0.25 -1.71875 0.6875 -3.40625q0.453125 -1.703125 1.09375 -3.34375q0.640625 -1.640625 1.4375 -3.25q0.015625 -0.0625 0.078125 -0.109375q0.078125 -0.046875 0.203125 -0.09375q0.125 -0.046875 0.34375 -0.0625q0.21875 -0.03125 0.5625 -0.03125q0.359375 0 0.578125 0.046875q0.21875 0.046875 0.34375 0.125q0.125 0.078125 0.140625 0.203125q0.015625 0.125 -0.046875 0.265625zm17.984375 15.734375q0 0.953125 -0.25 1.765625q-0.234375 0.796875 -0.671875 1.4375q-0.4375 0.640625 -1.0625 1.125q-0.609375 0.484375 -1.390625 0.8125q-0.765625 0.328125 -1.65625 0.5q-0.875 0.15625 -2.015625 0.15625l-5.28125 0q-0.359375 0 -0.6875 -0.234375q-0.3125 -0.25 -0.3125 -0.859375l0 -18.03125q0 -0.609375 0.3125 -0.84375q0.328125 -0.25 0.6875 -0.25l4.59375 0q1.8125 0 2.96875 0.34375q1.15625 0.34375 1.921875 1.0q0.78125 0.65625 1.171875 1.609375q0.390625 0.953125 0.390625 2.15625q0 0.71875 -0.171875 1.375q-0.171875 0.65625 -0.515625 1.21875q-0.328125 0.546875 -0.84375 0.984375q-0.5 0.4375 -1.15625 0.71875q0.828125 0.15625 1.546875 0.578125q0.71875 0.40625 1.25 1.046875q0.546875 0.640625 0.859375 1.5q0.3125 0.859375 0.3125 1.890625zm-4.046875 -9.046875q0 -0.734375 -0.203125 -1.328125q-0.203125 -0.59375 -0.640625 -1.0q-0.4375 -0.421875 -1.140625 -0.640625q-0.703125 -0.21875 -1.859375 -0.21875l-2.78125 0l0 6.546875l3.0625 0q1.046875 0 1.6875 -0.265625q0.640625 -0.28125 1.0625 -0.734375q0.421875 -0.46875 0.609375 -1.078125q0.203125 -0.625 0.203125 -1.28125zm1.21875 9.203125q0 -0.90625 -0.296875 -1.59375q-0.28125 -0.6875 -0.84375 -1.15625q-0.546875 -0.46875 -1.390625 -0.703125q-0.828125 -0.25 -2.09375 -0.25l-3.21875 0l0 7.125l3.90625 0q0.921875 0 1.609375 -0.21875q0.6875 -0.21875 1.203125 -0.640625q0.53125 -0.4375 0.828125 -1.078125q0.296875 -0.640625 0.296875 -1.484375zm11.828125 -2.75q0 1.765625 -0.21875 3.5q-0.21875 1.71875 -0.65625 3.40625q-0.4375 1.6875 -1.078125 3.3125q-0.625 1.640625 -1.46875 3.234375q-0.046875 0.078125 -0.140625 0.140625q-0.09375 0.0625 -0.25 0.109375q-0.140625 0.046875 -0.34375 0.0625q-0.203125 0.015625 -0.484375 0.015625q-0.40625 0 -0.640625 -0.046875q-0.21875 -0.03125 -0.328125 -0.125q-0.09375 -0.078125 -0.09375 -0.21875q0.015625 -0.125 0.09375 -0.3125q1.4375 -3.15625 2.171875 -6.453125q0.734375 -3.3125 0.734375 -6.671875q0 -3.34375 -0.734375 -6.640625q-0.734375 -3.3125 -2.203125 -6.453125q-0.0625 -0.140625 -0.046875 -0.265625q0.015625 -0.125 0.140625 -0.203125q0.125 -0.078125 0.34375 -0.125q0.21875 -0.046875 0.578125 -0.046875q0.328125 0 0.546875 0.03125q0.21875 0.015625 0.34375 0.0625q0.140625 0.046875 0.203125 0.09375q0.0625 0.046875 0.09375 0.109375q1.609375 3.203125 2.515625 6.59375q0.921875 3.375 0.921875 6.890625z" fill-rule="nonzero"/><path fill="#000000" d="m1049.0225 409.94394l0 7.0l9.5 0l0 2.75l-9.5 0l0 8.75l12.375 0l0 2.75l-26.875 0l0 -2.75l11.625 0l0 -8.75l-8.625 0l0 -2.75l8.625 0l0 -7.0l-10.125 0l0 -2.75l24.25 0l0 2.75l-11.25 0zm4.125 10.5q2.375 1.625 4.5 4.75l-2.75 1.875q-1.75 -2.875 -4.0 -4.875l2.25 -1.75zm39.125 -9.5q1.25 0.25 0.125 1.0l0 20.0l-2.875 0l0 -2.0l-19.125 0l0 2.5l-2.875 0l0 -21.5l2.75 0q1.25 0.25 0.125 1.0l0 15.25l8.0 0l0 -21.5l2.75 0q1.25 0.25 0.125 1.0l0 20.5l8.25 0l0 -16.25l2.75 0z" fill-rule="nonzero"/><path fill="#000000" d="m1106.8662 430.56894l0 -3.203125l3.203125 0l0 3.203125l-3.203125 0zm10.671875 0l0 -3.203125l3.203125 0l0 3.203125l-3.203125 0zm10.65625 0l0 -3.203125l3.21875 0l0 3.203125l-3.21875 0zm10.671875 0l0 -3.203125l3.203125 0l0 3.203125l-3.203125 0zm10.671875 0l0 -3.203125l3.203125 0l0 3.203125l-3.203125 0zm10.65625 0l0 -3.203125l3.21875 0l0 3.203125l-3.21875 0z" fill-rule="nonzero"/><path fill="#000000" fill-opacity="0.0" d="m860.61383 505.48398l234.15497 0l0 48.46878l-234.15497 0z" fill-rule="evenodd"/><path fill="#000000" d="m893.86383 519.829l5.25 0l0 2.375l-5.25 0l0 4.0l4.375 0l0 2.375l-4.375 0l0 3.875l4.5 0l0 2.375l-4.5 0l0 4.25l6.125 0l0 2.375l-12.5 0l0 1.25l-2.5 0l0 -17.375q-0.75 1.25 -2.0 2.5l-1.5 -2.375q3.625 -3.25 5.875 -11.125l2.5 0.75q0.75 0.375 -0.25 0.625q-0.875 2.375 -1.75 4.125l3.625 0l2.0 -4.875l2.375 0.875q0.5 0.5 -0.375 0.625l-1.625 3.375zm-20.75 -4.75l7.75 0l0 2.375l-7.75 0l0 -2.375zm-1.5 7.0l0 -2.375l11.0 0l0 2.375l-11.0 0zm1.5 2.0l7.75 0l0 2.375l-7.75 0l0 -2.375zm0 4.25l7.75 0l0 2.375l-7.75 0l0 -2.375zm-0.375 4.625l8.625 0l0 9.375l-2.125 0l0 -0.875l-4.375 0l0 1.375l-2.125 0l0 -9.875zm2.125 2.0l0 4.5l4.375 0l0 -4.5l-4.375 0zm12.625 -0.125l0 4.25l3.875 0l0 -4.25l-3.875 0zm0 -6.25l0 3.875l3.875 0l0 -3.875l-3.875 0zm0 -6.375l0 4.0l3.875 0l0 -4.0l-3.875 0zm31.375 5.125q0.5 0.75 1.125 1.625q2.125 -3.0 3.75 -6.875l2.375 0.5q1.125 0.375 -0.125 0.875q-0.625 1.25 -1.125 2.125q2.5 1.0 5.625 3.625l-1.5 2.25q-3.375 -2.75 -5.125 -3.875q-1.125 1.75 -2.125 3.125q6.875 6.0 10.25 7.5l-2.125 2.75q-5.875 -3.625 -11.0 -9.625l0 11.5l-2.5 0l0 -11.25q-3.625 5.25 -11.0 10.125l-1.875 -2.625q8.875 -5.125 12.875 -11.625l0 -6.0l-12.25 0l0 -2.375l12.25 0l0 -4.625l2.375 0q1.0 0.125 0.125 0.75l0 3.875l12.25 0l0 2.375l-12.25 0l0 5.875zm-7.375 -1.125q1.375 0.75 3.0 2.125l-1.5 2.0q-1.5 -1.125 -2.875 -2.0q-1.75 2.125 -3.625 3.625l-1.875 -2.0q4.125 -2.875 5.875 -7.75l2.375 0.375q1.25 0.375 0 0.875q-0.625 1.625 -1.375 2.75zm37.0 -0.25l0 -4.625l-6.0 0q-1.625 2.625 -3.5 4.125l-1.875 -1.875q3.75 -3.375 5.0 -8.25l2.625 0.875q1.0 0.375 -0.375 0.75q-0.375 1.0 -0.875 2.0l5.0 0l0 -4.625l2.375 0q1.0 0.125 0.125 0.75l0 3.875l9.0 0l0 2.375l-9.0 0l0 4.625l13.0 0l0 2.375l-28.625 0l0 -2.375l13.125 0zm8.125 12.75l0 -5.375l-14.125 0l0 5.375l14.125 0zm2.5 3.875l-2.5 0l0 -1.5l-14.125 0l0 1.75l-2.5 0l0 -11.875l19.125 0l0 11.625zm24.5 -18.875l12.375 0l0 2.375l-4.75 0l0 6.125q2.5 1.625 4.875 3.375l-1.125 2.375q-1.875 -1.375 -3.75 -2.625l0 7.625l-2.5 0l0 -9.125q-1.75 -1.125 -4.125 -2.375l1.0 -2.125q1.75 0.875 3.125 1.625l0 -4.875l-5.125 0l0 5.875q0 7.125 -3.125 11.125l-1.75 -2.25q2.375 -3.375 2.375 -8.875l0 -15.5l2.25 0.375q5.75 -0.375 9.375 -1.875l1.625 2.125q0.625 1.0 -1.0 0.5q-4.5 1.0 -9.75 1.5l0 4.625zm-7.625 11.0l-5.0 0l0 4.75l5.0 0l0 -4.75zm0 7.625l0 -0.875l-5.0 0l0 1.5l-2.125 0l0 -10.25l9.25 0l0 9.625l-2.125 0zm2.0 -14.0l0 2.375l-8.75 0l0 -2.375l8.75 0zm0 -4.5l0 2.375l-8.75 0l0 -2.375l8.75 0zm1.875 -4.625l0 2.375l-12.5 0l0 -2.375l12.5 0zm-1.875 -4.25l0 2.375l-8.75 0l0 -2.375l8.75 0zm46.50006 14.75q-2.625061 4.0 -4.500061 6.0q1.625 2.625 3.75 3.125q1.000061 0.25 1.125061 -2.375l2.375 1.25q-0.625 4.75 -3.125 4.125q-3.750061 -0.875 -6.000061 -4.375q-3.125 2.625 -6.75 4.25l-1.125 -2.625q5.0 -2.25 6.625 -4.0q-1.25 -3.75 -1.25 -9.625l-6.125 0l0 4.875q2.375 -0.5 4.875 -1.25l0.375 2.25q-2.875 0.875 -5.25 1.5l0 7.875q0 2.0 -2.0 2.0l-3.375 0l-0.5 -2.75l2.875 0q0.5 0 0.5 -0.5l0 -6.0q-2.25 0.5 -5.5 1.25q-0.75 1.0 -1.0 0.25l-0.875 -2.875q3.5 -0.375 7.375 -1.25l0 -5.375l-6.875 0l0 -2.375l6.875 0l0 -4.375l-5.75 0.75l-0.625 -2.375q7.5 -0.75 11.875 -2.25l1.5 2.375q0.25 0.625 -0.875 0.375l-3.625 0.625l0 4.875l6.125 0l0 -7.875l2.375 0q1.0 0.125 0.125 0.75l0 7.125l9.000061 0l0 2.375l-9.000061 0q0 4.625 0.75 7.75q2.25 -2.875 3.75 -5.625l2.375061 1.375q0.75 0.375 -0.5 0.75zm-1.875061 -8.125q-1.125 -1.25 -3.125 -3.0l2.125 -1.875q2.125 1.75 3.125061 3.0l-2.125061 1.875zm17.000061 16.625q8.75 -4.0 12.0 -10.125l-10.25 0l0 -2.375l2.875 0l0 -7.5l-2.0 0l0 -2.375l16.625 0l0 2.375l-4.0 0l0 7.5l4.875 0l0 2.375l-4.875 0l0 12.5q0 2.0 -1.875 2.0l-2.625 0l-0.875 -2.375l2.375 0q0.5 0 0.5 -0.5l0 -8.5q-3.125 5.125 -11.25 9.5l-1.5 -2.5zm12.75 -20.0l-5.625 0l0 7.5l5.625 0l0 -7.5zm-14.625 14.5l0 -12.875l-3.25 0l0 12.875l3.25 0zm-5.75 5.25l0 -20.5l8.25 0l0 17.625l-5.75 0l0 2.875l-2.5 0z" fill-rule="nonzero"/><path fill="#000000" fill-opacity="0.0" d="m805.69354 306.46152l0 113.621735" fill-rule="evenodd"/><path stroke="#000000" stroke-width="6.0" stroke-miterlimit="800.0" stroke-linecap="butt" d="m805.69354 306.46152l0 113.621735" fill-rule="evenodd"/><path fill="#000000" fill-opacity="0.0" d="m808.61383 528.6475l52.0 1.0708618" fill-rule="evenodd"/><path stroke="#000000" stroke-width="6.0" stroke-miterlimit="800.0" stroke-linecap="butt" d="m808.61383 528.6475l16.00763 0.32965088" fill-rule="evenodd"/><path fill="#000000" stroke="#000000" stroke-width="6.0" stroke-linecap="butt" d="m824.4174 538.88544l27.42688 -9.347656l-27.018799 -10.468933z" fill-rule="evenodd"/><path fill="#000000" fill-opacity="0.0" d="m805.69354 420.08325l51.99829 -1.2351685" fill-rule="evenodd"/><path stroke="#000000" stroke-width="6.0" stroke-miterlimit="800.0" stroke-linecap="butt" d="m805.69354 420.08325l16.008484 -0.38024902" fill-rule="evenodd"/><path fill="#000000" stroke="#000000" stroke-width="6.0" stroke-linecap="butt" d="m821.9373 429.6106l26.985596 -10.554199l-27.456238 -9.261017z" fill-rule="evenodd"/><path fill="#000000" fill-opacity="0.0" d="m810.4616 307.97775l51.998352 0" fill-rule="evenodd"/><path stroke="#000000" stroke-width="6.0" stroke-miterlimit="800.0" stroke-linecap="butt" d="m810.4616 307.97775l15.998352 0" fill-rule="evenodd"/><path fill="#000000" stroke="#000000" stroke-width="6.0" stroke-linecap="butt" d="m826.45996 317.88815l27.228577 -9.9104l-27.228577 -9.9104z" fill-rule="evenodd"/><path fill="#000000" fill-opacity="0.0" d="m805.69354 415.01846l0 113.621735" fill-rule="evenodd"/><path stroke="#000000" stroke-width="6.0" stroke-miterlimit="800.0" stroke-linecap="butt" d="m805.69354 415.01846l0 113.621735" fill-rule="evenodd"/><path fill="#000000" fill-opacity="0.0" d="m201.16461 607.7354l899.8249 0l0 54.931274l-899.8249 0z" fill-rule="evenodd"/><path fill="#ff0000" d="m366.2369 650.34106q-0.875 0.15625 -0.296875 -0.4375q6.703125 -4.375 9.484375 -9.03125q-2.046875 -1.3125 -4.375 -2.1875l-0.734375 2.1875q-2.046875 1.3125 -1.75 -0.15625l3.9375 -14.140625l-6.125 0l0 -0.875l6.265625 0l1.90625 -8.3125l2.328125 0.734375q1.609375 0.578125 -0.734375 1.171875l-1.59375 6.40625l5.09375 0l0.875 -1.3125l2.484375 2.046875q0.71875 0.734375 -1.3125 0.875q-1.171875 7.71875 -4.078125 12.96875q2.46875 1.46875 3.78125 2.78125q0.875 0.875 0.875 1.890625q0 0.875 -0.71875 0.875q-0.59375 0 -1.609375 -1.171875q-1.3125 -1.453125 -3.0625 -2.90625q-3.9375 5.6875 -10.640625 8.59375zm8.15625 -23.765625l-3.0625 11.234375q2.484375 0.71875 4.671875 1.75q2.765625 -5.25 3.796875 -12.984375l-5.40625 0zm13.421875 18.078125l0 2.1875q-1.90625 1.75 -1.90625 0.15625l0 -23.765625l2.1875 1.453125l7.15625 0l0.875 -1.171875l2.03125 1.46875q0.875 0.71875 -0.578125 1.015625l0 19.96875q-1.890625 1.75 -1.890625 0.15625l0 -1.46875l-7.875 0zm0 -19.09375l0 18.21875l7.875 0l0 -18.21875l-7.875 0zm15.59375 10.9375q-0.875 0.4375 -0.4375 -0.4375q5.984375 -9.484375 8.3125 -18.515625l2.78125 1.15625q1.453125 0.59375 -1.03125 1.171875q-1.59375 3.9375 -3.5 7.4375l1.03125 0.578125q1.015625 0.734375 0 1.015625l-0.734375 0.15625l0 20.703125q-1.890625 1.75 -1.890625 0.140625l0 -19.390625q-2.1875 3.359375 -4.53125 5.984375zm10.5 -13.859375l18.8125 0l2.1875 -2.1875l2.765625 2.046875q0.875 0.734375 0 1.015625l-4.65625 0l0 22.75q0 1.75 -1.03125 2.625q-0.875 0.734375 -2.03125 0.875q-0.875 0.140625 -0.875 -0.734375q0 -0.71875 -0.734375 -1.015625l-2.328125 -0.578125q-0.734375 -0.296875 0 -0.59375l3.78125 0q1.3125 0 1.3125 -1.3125l0 -22.015625l-17.203125 0l0 -0.875zm8.890625 6.125l0.875 -1.15625l2.046875 1.453125q0.875 0.71875 -0.578125 1.015625l0 10.359375q-1.90625 1.75 -1.90625 0.140625l0 -1.453125l-4.796875 0l0 3.34375q-1.90625 1.75 -1.90625 0.15625l0 -14.734375l2.1875 0.875l4.078125 0zm0.4375 0.875l-4.796875 0l0 8.609375l4.796875 0l0 -8.609375zm22.3125 18.671875q-0.28125 -0.296875 0.15625 -0.59375l2.46875 0.4375q2.625 0.59375 4.234375 -0.4375q2.625 -1.75 4.234375 -11.515625l-11.375 0l-0.4375 2.625q-1.75 1.75 -1.75 0.140625l1.75 -12.09375l2.03125 1.015625l8.609375 0l0 -7.0l-11.953125 0l0 -0.875l11.375 0l0.875 -1.453125l2.609375 1.75q1.171875 0.875 -1.015625 1.171875l0 9.03125q-1.890625 1.75 -1.890625 0.140625l0 -1.890625l-9.1875 0l-0.875 6.5625l10.640625 0l1.3125 -1.3125l2.1875 2.1875q1.015625 1.171875 -0.875 0.734375q-1.75 11.375 -6.265625 13.40625q-1.609375 0.875 -2.921875 0.734375q-0.875 -0.140625 -0.875 -0.875q-0.140625 -0.578125 -0.875 -1.015625l-2.1875 -0.875zm24.0625 1.3125q-1.890625 1.75 -1.890625 0.140625l0 -31.5l2.46875 0.4375q1.171875 0.734375 -0.578125 1.03125l0 29.890625zm32.21875 -10.5l-8.015625 0q-5.53125 0 -9.765625 -3.65625l-3.359375 3.359375q0.15625 1.609375 -0.71875 0.875l-1.46875 -2.1875l4.8125 -2.046875l0 -6.40625l-4.953125 0l0 -0.875l4.515625 0l0.875 -1.171875l2.046875 1.46875q0.875 0.71875 -0.578125 1.015625l0 5.828125q3.203125 2.328125 8.15625 2.328125l16.765625 0q-1.15625 0.734375 -1.59375 1.46875l-4.8125 0l0 3.34375l3.78125 0l1.90625 -1.890625l2.328125 1.75q0.8750305 0.734375 0 1.015625l-8.015625 0l0 4.8125q0 1.609375 -1.03125 2.484375q-0.578125 0.578125 -1.453125 0.578125q-0.578125 0 -0.578125 -0.71875q0 -0.734375 -0.875 -1.03125l-1.90625 -0.28125q-0.578125 -0.296875 0 -0.59375l2.921875 0q1.015625 0 1.015625 -1.015625l0 -4.234375l-13.265625 0q2.921875 2.484375 2.921875 4.375q0 1.46875 -0.875 1.46875q-0.578125 0 -1.015625 -0.875q-0.734375 -3.359375 -2.34375 -4.96875l-8.3125 0l0 -0.875l22.890625 0l0 -3.34375zm-10.640625 -22.015625q3.65625 1.890625 3.65625 3.640625q0 0.875 -0.296875 1.3125l5.25 0l1.890625 -4.8125l2.328125 1.015625q1.171875 0.59375 -1.015625 0.875l-2.1875 2.921875l5.6875 0l1.890625 -1.890625l2.34375 1.75q0.875 0.71875 0 1.015625l-12.546875 0l-1.75 2.921875l8.3125 0l0.734375 -1.3125l2.03125 1.75q0.875 0.71875 -0.578125 1.015625l0 8.15625q-1.890625 1.75 -1.890625 0.15625l0 -0.734375l-12.984375 0l0 0.4375q-1.890625 1.75 -1.890625 0.140625l0 -10.640625l2.1875 1.03125l3.0625 0l0.71875 -2.921875l-9.171875 0l0 -0.875l6.84375 0q-0.875 -0.734375 -1.015625 -1.609375q-0.578125 -1.75 -1.890625 -2.765625q-0.4375 -0.578125 0.28125 -0.578125zm-11.515625 1.015625q5.109375 1.890625 5.109375 4.515625q0 1.03125 -1.03125 1.03125q-0.4375 0 -1.015625 -1.46875q-0.875 -1.890625 -3.359375 -3.640625q-0.4375 -0.578125 0.296875 -0.4375zm12.390625 10.359375l12.984375 0l0 -1.75l-12.984375 0l0 1.75zm0 0.859375l0 1.75l12.984375 0l0 -1.75l-12.984375 0zm0 2.625l0 2.046875l12.984375 0l0 -2.046875l-12.984375 0z" fill-rule="nonzero"/><path fill="#ff0000" d="m545.74084 622.2942l0.640625 7.796875l-0.640625 0q-0.96875 -2.90625 -2.5 -4.390625q-2.203125 -2.125 -5.65625 -2.125q-4.71875 0 -7.1875 3.734375q-2.0625 3.15625 -2.0625 7.5q0 3.546875 1.359375 6.46875q1.375 2.90625 3.59375 4.265625q2.21875 1.359375 4.546875 1.359375q1.375 0 2.640625 -0.34375q1.28125 -0.34375 2.46875 -1.03125l0 -7.140625q0 -1.859375 -0.296875 -2.421875q-0.28125 -0.578125 -0.875 -0.875q-0.578125 -0.3125 -2.078125 -0.3125l0 -0.6875l9.5625 0l0 0.6875l-0.453125 0q-1.421875 0 -1.953125 0.953125q-0.359375 0.671875 -0.359375 2.65625l0 7.5625q-2.09375 1.140625 -4.140625 1.65625q-2.03125 0.53125 -4.53125 0.53125q-7.171875 0 -10.890625 -4.59375q-2.78125 -3.4375 -2.78125 -7.9375q0 -3.265625 1.5625 -6.265625q1.859375 -3.546875 5.109375 -5.453125q2.71875 -1.59375 6.421875 -1.59375q1.34375 0 2.4375 0.21875q1.109375 0.21875 3.125 0.96875q1.03125 0.375 1.375 0.375q0.34375 0 0.59375 -0.3125q0.25 -0.3125 0.296875 -1.25l0.671875 0zm11.707153 13.703125l0 7.203125q0 2.328125 0.515625 2.90625q0.6875 0.796875 2.09375 0.796875l0.9375 0l0 0.671875l-10.578125 0l0 -0.671875l0.921875 0q1.5625 0 2.25 -1.015625q0.359375 -0.578125 0.359375 -2.6875l0 -15.96875q0 -2.328125 -0.5 -2.890625q-0.703125 -0.8125 -2.109375 -0.8125l-0.921875 0l0 -0.671875l9.046875 0q3.328125 0 5.234375 0.6875q1.921875 0.6875 3.234375 2.3125q1.3125 1.609375 1.3125 3.84375q0 3.015625 -2.0 4.921875q-2.0 1.890625 -5.640625 1.890625q-0.890625 0 -1.9375 -0.125q-1.03125 -0.125 -2.21875 -0.390625zm0 -1.03125q0.96875 0.171875 1.703125 0.265625q0.75 0.09375 1.28125 0.09375q1.90625 0 3.28125 -1.46875q1.375 -1.46875 1.375 -3.796875q0 -1.609375 -0.65625 -2.984375q-0.65625 -1.375 -1.859375 -2.046875q-1.203125 -0.6875 -2.734375 -0.6875q-0.9375 0 -2.390625 0.34375l0 10.28125zm34.69763 -12.109375l0.28125 5.796875l-0.703125 0q-0.1875 -1.53125 -0.546875 -2.1875q-0.5625 -1.046875 -1.5 -1.546875q-0.9375 -0.515625 -2.46875 -0.515625l-3.484375 0l0 18.890625q0 2.28125 0.5 2.84375q0.6875 0.765625 2.125 0.765625l0.859375 0l0 0.671875l-10.484375 0l0 -0.671875l0.875 0q1.578125 0 2.234375 -0.953125q0.390625 -0.578125 0.390625 -2.65625l0 -18.890625l-2.96875 0q-1.734375 0 -2.453125 0.265625q-0.953125 0.34375 -1.625 1.328125q-0.671875 0.984375 -0.796875 2.65625l-0.703125 0l0.296875 -5.796875l20.171875 0z" fill-rule="nonzero"/><path fill="#ff0000" d="m609.8859 631.09106l21.140625 0l1.890625 -1.890625l2.625 2.765625l-25.796875 0q-0.15625 8.171875 -1.328125 12.109375q-1.15625 3.9375 -4.515625 7.140625l-0.28125 -0.28125q3.203125 -4.671875 3.703125 -10.0625q0.515625 -5.40625 0.234375 -10.9375l2.328125 1.15625zm-2.484375 -10.046875l12.84375 0q-0.296875 -1.171875 -0.734375 -2.046875q-0.4375 -0.875 -1.453125 -1.890625l0.28125 -0.296875q2.625 1.015625 3.34375 1.96875q0.734375 0.953125 -0.578125 2.265625l9.921875 0l1.609375 -1.609375l2.328125 2.484375l-22.75 0q-1.890625 0 -3.5 0.4375l-1.3125 -1.3125zm7.15625 17.640625q-2.484375 3.5 -4.09375 4.953125l-0.4375 -0.296875q1.3125 -1.890625 2.84375 -5.015625q1.53125 -3.140625 1.96875 -5.484375l2.78125 1.609375q-1.3125 1.3125 -2.625 3.359375l6.546875 0q0 -2.484375 -0.140625 -5.40625l3.203125 1.46875l-1.15625 1.015625l0 2.921875l6.125 0l1.59375 -1.609375l2.34375 2.484375l-10.0625 0l0 4.21875l4.8125 0l1.59375 -1.59375l2.34375 2.46875l-8.75 0l0 5.25l8.3125 0l2.1875 -1.890625l2.625 2.765625l-22.890625 0q-1.90625 0 -3.5 0.4375l-1.3125 -1.3125l12.671875 0l0 -5.25l-3.484375 0q-1.90625 0 -3.5 0.4375l-1.3125 -1.3125l8.296875 0l0 -4.21875l-6.984375 0zm-2.625 -9.046875q2.46875 -0.734375 8.453125 -3.640625q-2.765625 -1.609375 -6.125 -3.203125l0.140625 -0.4375q4.375 1.59375 7.296875 2.90625q4.375 -2.328125 6.125 -3.640625l1.75 2.046875q-1.90625 0.4375 -6.421875 2.328125q3.796875 1.609375 4.671875 2.625q0.875 1.015625 0.28125 1.890625q-0.578125 0.875 -1.671875 -0.359375q-1.09375 -1.25 -4.734375 -3.28125q-3.359375 1.453125 -9.625 3.34375l-0.140625 -0.578125z" fill-rule="nonzero"/><path fill="#ff0000" d="m641.8235 637.07544q5.96875 -7.734375 8.015625 -17.34375l3.203125 0.875q1.609375 0.578125 -1.3125 1.3125q-0.875 2.625 -2.03125 5.09375l7.71875 0l0 -9.1875l2.484375 0.4375q1.15625 0.734375 -0.59375 1.03125l0 7.71875l8.75 0l1.90625 -1.890625l2.328125 1.75q0.875 0.734375 0 1.015625l-12.984375 0l0 8.609375l6.859375 0l1.890625 -1.90625l2.34375 1.75q0.875 0.734375 0 1.03125l-11.09375 0l0 10.203125l10.359375 0l2.1875 -2.1875l2.765625 2.046875q0.875 0.71875 0 1.015625l-32.359375 0l0 -0.875l15.15625 0l0 -10.203125l-9.03125 0l0 -0.875l9.03125 0l0 -8.609375l-8.15625 0q-3.0625 5.828125 -7.0 9.625q-0.734375 0.296875 -0.4375 -0.4375zm46.65625 -5.25q-3.796875 4.671875 -9.328125 8.3125q-0.875 0.296875 -0.4375 -0.578125q8.3125 -7.296875 12.25 -15.015625l-11.53125 0l0 -0.875l11.96875 0q1.59375 -3.359375 2.46875 -6.71875l2.921875 1.46875q1.453125 1.015625 -1.171875 1.015625q-1.15625 2.765625 -2.03125 4.234375l13.546875 0l2.1875 -2.1875l2.78125 2.03125q0.875 0.734375 0 1.03125l-18.8125 0q-1.453125 2.625 -2.921875 4.515625l0.4375 0.578125l11.671875 0l0.875 -1.15625l2.03125 1.453125q0.875 0.71875 -0.578125 1.015625l0 16.625q0 1.609375 -1.015625 2.484375q-0.59375 0.578125 -1.46875 0.578125q-0.578125 0 -0.578125 -0.578125q0 -0.734375 -0.875 -1.03125l-1.890625 -0.4375q-0.59375 -0.28125 0 -0.578125l2.90625 0q1.03125 0 1.03125 -1.015625l0 -5.40625l-12.546875 0l0 8.609375q-1.890625 1.75 -1.890625 0.140625l0 -18.515625zm14.4375 8.890625l0 -4.65625l-12.546875 0l0 4.65625l12.546875 0zm0 -10.203125l-12.546875 0l0 4.671875l12.546875 0l0 -4.671875zm13.406189 19.6875q-0.875 0.4375 -0.4375 -0.4375q5.546875 -6.703125 5.546875 -14.296875l0 -17.34375l2.1875 1.3125l19.828125 0l0.875 -1.171875l2.046875 1.46875q0.875 0.71875 -0.59375 1.015625l0 25.515625q0 1.75 -1.015625 2.625q-0.875 0.734375 -1.75 0.875q-0.875 0.140625 -0.875 -0.734375q0 -0.71875 -0.734375 -1.015625l-2.625 -0.578125q-0.71875 -0.296875 0 -0.59375l3.796875 0q1.3125 0 1.3125 -1.3125l0 -8.59375l-9.765625 0l0 11.953125q-1.890625 1.75 -1.890625 0.140625l0 -12.09375l-8.90625 0q-0.4375 7.28125 -7.0 13.265625zm27.5625 -22.453125l0 -7.4375l-9.765625 0l0 7.4375l9.765625 0zm-20.5625 0l8.90625 0l0 -7.4375l-8.90625 0l0 7.4375zm8.90625 8.3125l0 -7.4375l-8.90625 0l0 7.4375l8.90625 0zm1.890625 -7.4375l0 7.4375l9.765625 0l0 -7.4375l-9.765625 0zm40.96875 9.03125q-0.875 -2.46875 -3.359375 -4.8125q-0.4375 -0.578125 0.296875 -0.4375q5.109375 2.1875 5.109375 5.25q0 1.3125 -1.03125 1.3125q-0.578125 0 -1.015625 -1.3125zm-7.28125 -4.21875q4.078125 -6.421875 5.96875 -16.1875l2.765625 0.875q2.046875 0.578125 -0.578125 1.3125l-2.484375 5.984375l9.484375 0l0.875 -1.171875l2.046875 1.453125q0.875 0.734375 -0.59375 1.03125l0 11.359375q0 7.0 -2.03125 9.484375q-1.171875 1.453125 -3.359375 2.328125q-2.046875 0.875 -2.046875 -0.28125q0 -1.171875 -0.71875 -1.3125l-2.625 -0.734375q-0.734375 -0.4375 0.140625 -0.578125l3.5 0.28125q1.453125 0.15625 2.921875 -0.71875q2.328125 -1.609375 2.328125 -8.75l0 -11.515625l-10.359375 0q-2.1875 4.65625 -4.65625 7.421875q-0.734375 0.4375 -0.578125 -0.28125zm-0.875 12.6875q-1.90625 1.75 -1.90625 0.140625l0 -2.1875l-8.453125 0l0 3.5q-1.890625 1.75 -1.890625 0.140625l0 -23.46875l2.1875 1.171875l2.03125 0l1.46875 -8.171875l2.1875 0.578125q2.625 0.59375 -0.4375 1.75l-2.34375 5.84375l4.8125 0l0.875 -1.171875l2.046875 1.453125q0.875 0.734375 -0.578125 1.03125l0 19.390625zm-1.90625 -19.828125l-8.453125 0l0 7.578125l8.453125 0l0 -7.578125zm-8.453125 8.453125l0 8.453125l8.453125 0l0 -8.453125l-8.453125 0zm47.6875 -5.25q6.109375 -6.125 8.296875 -13.125l2.484375 0.875q1.609375 0.578125 -0.296875 1.3125q3.65625 5.6875 10.0625 8.75q-1.59375 0.578125 -2.46875 1.75q-4.671875 -3.359375 -8.03125 -9.921875q-3.640625 6.5625 -9.46875 10.796875q-1.171875 0.578125 -0.578125 -0.4375zm10.34375 3.0625q0.875 0.71875 -0.578125 1.015625l0 14.296875q0 1.15625 -0.59375 1.75q-0.4375 0.4375 -1.453125 0.71875q-0.875 0.296875 -0.875 -0.4375q0 -0.4375 -0.4375 -0.71875l-1.890625 -0.59375q-0.296875 -0.28125 0 -0.4375l2.328125 0q1.015625 0 1.015625 -1.015625l0 -4.375l-4.21875 0l0 7.734375q-1.890625 1.75 -1.890625 0.140625l0 -19.390625l2.171875 1.015625l3.5 0l0.875 -1.171875l2.046875 1.46875zm8.890625 -1.46875q1.171875 0.734375 -0.578125 1.03125l0 15.453125q0 1.171875 -0.578125 1.75q-0.4375 0.4375 -1.46875 0.734375q-0.875 0.28125 -0.875 -0.4375q0 -0.4375 -0.4375 -0.734375l-1.890625 -0.578125q-0.296875 -0.296875 0 -0.4375l2.328125 0q1.03125 0 1.03125 -1.03125l0 -16.1875l2.46875 0.4375zm-33.234375 12.109375l0 -0.875l6.265625 0l0 -4.078125l-3.0625 0l0 1.59375q-1.890625 1.75 -1.890625 0.15625l0 -13.859375l2.1875 1.03125l2.765625 0l0 -3.5l-6.265625 0l0 -0.875l6.265625 0l0 -5.546875l2.484375 0.4375q1.15625 0.734375 -0.59375 1.015625l0 4.09375l3.359375 0l1.609375 -1.609375l2.03125 1.453125q0.875 0.734375 0 1.03125l-7.0 0l0 3.5l2.625 0l0.875 -1.171875l2.046875 1.453125q0.875 0.734375 -0.578125 1.03125l0 10.78125q-1.90625 1.75 -1.90625 0.140625l0 -1.15625l-3.0625 0l0 4.078125l3.21875 0l1.59375 -1.609375l2.046875 1.46875q0.875 0.71875 0 1.015625l-6.859375 0l0 7.140625q-1.890625 1.75 -1.890625 0.15625l0 -7.296875l-6.265625 0zm6.265625 -15.15625l-3.0625 0l0 4.21875l3.0625 0l0 -4.21875zm4.953125 0l-3.0625 0l0 4.21875l3.0625 0l0 -4.21875zm-4.953125 5.09375l-3.0625 0l0 4.234375l3.0625 0l0 -4.234375zm4.953125 0l-3.0625 0l0 4.234375l3.0625 0l0 -4.234375zm7.296875 -5.53125l5.53125 0l1.609375 -1.609375l2.046875 1.453125q0.875 0.734375 0 1.03125l-9.1875 0l0 -0.875zm9.90625 5.53125q1.171875 0.734375 -0.578125 1.015625l0 9.921875q-1.890625 1.75 -1.890625 0.140625l0 -11.515625l2.46875 0.4375zm-10.78125 3.796875l4.21875 0l0 -3.796875l-4.21875 0l0 3.796875zm0 4.953125l4.21875 0l0 -4.078125l-4.21875 0l0 4.078125zm49.71875 -8.609375q-1.890625 1.75 -1.890625 0.15625l0 -1.75l-10.0625 0l0 14.71875l11.515625 0l0 -10.9375l2.484375 0.4375q1.15625 0.734375 -0.59375 1.03125l0 12.96875q-1.890625 1.75 -1.890625 0.15625l0 -2.78125l-24.640625 0l0 2.484375q-1.890625 1.75 -1.890625 0.140625l0 -14.578125l2.46875 0.4375q1.171875 0.734375 -0.578125 1.015625l0 9.625l11.234375 0l0 -14.71875l-9.484375 0l0 1.453125q-1.890625 1.75 -1.890625 0.140625l0 -12.671875l2.46875 0.4375q1.171875 0.71875 -0.578125 1.015625l0 8.75l9.484375 0l0 -12.25l2.46875 0.4375q1.171875 0.734375 -0.578125 1.015625l0 10.796875l10.0625 0l0 -10.203125l2.46875 0.4375q1.171875 0.71875 -0.578125 1.015625l0 11.21875zm16.046875 -8.734375l-5.25 0l0 13.546875l5.25 0l0 -13.546875zm1.890625 16.90625q-1.890625 1.75 -1.890625 0.140625l0 -2.625l-5.25 0l0 4.375q-1.90625 1.75 -1.90625 0.15625l0 -21.140625l2.1875 1.3125l4.671875 0l0.875 -1.3125l2.046875 1.3125q1.59375 0.875 -0.734375 1.15625l0 16.625zm5.828125 -15.3125l13.859375 0l0 -5.53125l-13.859375 0l0 5.53125zm13.859375 0.875l-13.859375 0l0 6.421875q0 10.9375 -7.140625 16.46875q-1.3125 0.59375 -0.4375 -0.4375q5.6875 -5.828125 5.6875 -16.1875l0 -14.578125l2.1875 1.03125l13.265625 0l1.015625 -1.03125l1.609375 1.03125q1.609375 1.015625 -0.4375 1.453125l0 6.703125q-1.890625 2.046875 -1.890625 0.15625l0 -1.03125zm-8.46875 9.921875q6.5625 -2.34375 9.34375 -4.375l1.75 1.59375q1.890625 1.75 -1.171875 0.875l-9.921875 2.625l0 9.046875q0 0.578125 0.59375 0.578125l7.578125 0q1.453125 0 1.609375 -1.015625l0.875 -4.515625q0.28125 -0.296875 0.4375 0l0 4.515625q0 0.734375 0.578125 1.015625q0.875 0.4375 0 1.3125q-0.4375 0.4375 -2.625 0.4375l-9.1875 0q-1.75 0 -1.75 -1.75l0 -17.78125l2.328125 0.4375q1.75 0.4375 -0.4375 1.3125l0 5.6875zm33.6875 9.90625q-0.578125 0.59375 -1.453125 0.59375q-0.875 0 -1.453125 -0.59375q-0.59375 -0.578125 -0.59375 -1.453125q0 -0.875 0.59375 -1.453125q0.578125 -0.59375 1.453125 -0.59375q0.875 0 1.453125 0.59375q0.578125 0.578125 0.578125 1.453125q0 0.875 -0.578125 1.453125zm-9.46875 -16.328125q-0.734375 -0.734375 -0.734375 -2.46875q0 -2.921875 2.484375 -4.8125q2.625 -1.90625 6.40625 -1.90625q3.9375 0 6.5625 1.90625q2.765625 1.890625 2.765625 4.953125q0 2.46875 -1.59375 3.9375q-1.609375 1.453125 -3.9375 2.46875q-1.90625 0.734375 -2.625 1.609375q-0.734375 0.734375 -0.875 2.328125l-0.140625 1.46875l-1.03125 0l0 -2.1875q0 -1.609375 0.59375 -2.78125q0.578125 -1.015625 2.171875 -1.890625q2.1875 -1.3125 3.0625 -2.1875q1.03125 -0.734375 1.03125 -3.203125q0 -2.484375 -1.609375 -3.796875q-1.609375 -1.3125 -4.65625 -1.3125q-3.5 0 -5.40625 1.46875q-1.890625 1.453125 -1.890625 3.78125q0.296875 -0.28125 0.734375 -0.4375q0.4375 -0.140625 1.015625 -0.140625q0.875 0 1.3125 0.578125q0.578125 0.59375 0.578125 1.453125q0 0.875 -0.578125 1.46875q-0.4375 0.578125 -1.609375 0.578125q-1.15625 0 -2.03125 -0.875z" fill-rule="nonzero"/><path fill="#000000" fill-opacity="0.0" d="m747.7644 418.71088l51.998352 0" fill-rule="evenodd"/><path stroke="#000000" stroke-width="6.0" stroke-miterlimit="800.0" stroke-linecap="butt" d="m747.7644 418.71088l51.998352 0" fill-rule="evenodd"/></g></svg>